<?xml version="1.0" standalone="no"?><!DOCTYPE svg PUBLIC "-//W3C//DTD SVG 1.1//EN" "http://www.w3.org/Graphics/SVG/1.1/DTD/svg11.dtd"><svg width="200" height="200" viewBox="0 0 200 200" version="1.1" xmlns="http://www.w3.org/2000/svg" xmlns:xlink="http://www.w3.org/1999/xlink"><defs><style type="text/css"><![CDATA[
@font-face { font-family: ifont; src: url("http://at.alicdn.com/t/font_1442373896_4754455.eot?#iefix") format("embedded-opentype"), url("http://at.alicdn.com/t/font_1442373896_4754455.woff") format("woff"), url("http://at.alicdn.com/t/font_1442373896_4754455.ttf") format("truetype"), url("http://at.alicdn.com/t/font_1442373896_4754455.svg#ifont") format("svg"); }

]]></style></defs><g class="transform-group"><g transform="scale(0.1953125, 0.1953125)"><path d="M511.349333 549.952l0 0.032c0.117333 0 0.234667-0.010667 0.352-0.010667 0.032 0 0.138667 0.010667 0.213333 0.010667 0.010667 0 0.053333 0 0.085333 0s0.074667 0 0.085333 0c0.074667 0 0.181333-0.010667 0.213333-0.010667 0.117333 0 0.234667 0.010667 0.352 0.010667l0-0.032c137.568 2.08 221.173333-118.314667 223.338667-316.821333C737.386667 95.392 651.978667 16.672 512.885333 12.96L512.885333 12.906667c-0.213333 0-0.373333 0.010667-0.597333 0.010667L512.288 12.906667c-0.106667 0-0.202667 0-0.288 0.010667C511.904 12.906667 511.797333 12.906667 511.712 12.906667l0 0.010667c-0.224 0-0.384-0.010667-0.576-0.010667l0 0.053333C372.032 16.672 286.624 95.392 288.010667 233.12 290.176 431.626667 373.781333 552.032 511.349333 549.952zM512 797.589333l62.442667-68.522667-59.68 282.026667 497.781333 0c-0.106667-15.893333-4.32-31.722667-12.746667-45.856L827.605333 677.376c-10.4-17.418667-25.888-29.802667-43.338667-36.981333l-118.005333-54.336-56.693333-47.808-97.44 96.896-97.664-96.896-56.693333 47.808-118.005333 54.336c-17.461333 7.178667-32.949333 19.562667-43.338667 36.981333L24.202667 965.237333c-8.426667 14.133333-12.650667 29.962667-12.746667 45.856l497.781333 0-59.68-282.026667L512 797.589333zM662.218667 835.904l46.517333 0 0-46.517333 54.506667 0 0 46.517333 46.528 0 0 54.496-46.528 0 0 46.517333-54.506667 0 0-46.517333-46.517333 0L662.218667 835.904z" fill="#11cd6e"></path></g></g></svg>