<?xml version="1.0" standalone="no"?><!DOCTYPE svg PUBLIC "-//W3C//DTD SVG 1.1//EN" "http://www.w3.org/Graphics/SVG/1.1/DTD/svg11.dtd"><svg width="200" height="200" viewBox="0 0 200 200" version="1.1" xmlns="http://www.w3.org/2000/svg" xmlns:xlink="http://www.w3.org/1999/xlink"><defs><style type="text/css"><![CDATA[
@font-face { font-family: ifont; src: url("http://at.alicdn.com/t/font_1442373896_4754455.eot?#iefix") format("embedded-opentype"), url("http://at.alicdn.com/t/font_1442373896_4754455.woff") format("woff"), url("http://at.alicdn.com/t/font_1442373896_4754455.ttf") format("truetype"), url("http://at.alicdn.com/t/font_1442373896_4754455.svg#ifont") format("svg"); }

]]></style></defs><g class="transform-group"><g transform="scale(0.1953125, 0.1953125)"><path d="M512.006 937.196c-234.84 0-425.204-190.362-425.204-425.19 0-234.83 190.364-425.206 425.204-425.206 234.83 0 425.192 190.376 425.192 425.206C937.198 746.836 746.836 937.196 512.006 937.196zM512.006 139.956c-205.476 0-372.048 166.572-372.048 372.05 0 205.476 166.572 372.048 372.048 372.048 205.478 0 372.04-166.572 372.04-372.048C884.044 306.528 717.484 139.956 512.006 139.956zM698.02 538.584 416.706 538.584l109.528 109.514c10.38 10.38 10.38 27.214 0 37.596-10.38 10.368-27.202 10.368-37.582 0l-150.328-150.342c-6.37-6.378-8.352-15.102-6.898-23.344-1.454-8.242 0.53-16.978 6.898-23.358l150.328-150.33c10.38-10.38 27.202-10.38 37.582 0s10.38 27.202 0 37.582l-109.528 109.528L698.02 485.43c14.682 0 26.576 11.894 26.576 26.578C724.596 526.678 712.702 538.584 698.02 538.584z" fill="#ffffff"></path></g></g></svg>