<?xml version="1.0" standalone="no"?><!DOCTYPE svg PUBLIC "-//W3C//DTD SVG 1.1//EN" "http://www.w3.org/Graphics/SVG/1.1/DTD/svg11.dtd"><svg width="200" height="200" viewBox="0 0 200 200" version="1.1" xmlns="http://www.w3.org/2000/svg" xmlns:xlink="http://www.w3.org/1999/xlink"><defs><style type="text/css"><![CDATA[
@font-face { font-family: ifont; src: url("http://at.alicdn.com/t/font_1442373896_4754455.eot?#iefix") format("embedded-opentype"), url("http://at.alicdn.com/t/font_1442373896_4754455.woff") format("woff"), url("http://at.alicdn.com/t/font_1442373896_4754455.ttf") format("truetype"), url("http://at.alicdn.com/t/font_1442373896_4754455.svg#ifont") format("svg"); }

]]></style></defs><g class="transform-group"><g transform="scale(0.1953125, 0.1953125)"><path d="M530.432 475.136q0-8.192-5.12-13.312t-13.312-5.12q-37.888 0-64.512 27.648t-26.624 64.512q0 8.192 5.12 13.312t13.312 5.12 12.288-5.12 5.12-13.312q0-23.552 16.384-38.912t38.912-16.384q8.192 0 13.312-5.12t5.12-13.312zM658.432 549.888q0 60.416-43.008 103.424t-103.424 43.008-103.424-43.008-43.008-103.424 43.008-103.424 103.424-43.008 103.424 43.008 43.008 103.424zM72.704 877.568l878.592 0 0-72.704-878.592 0 0 72.704zM731.136 549.888q0-91.136-63.488-155.648t-155.648-63.488-154.624 63.488-64.512 155.648 64.512 154.624 154.624 64.512 155.648-64.512 63.488-154.624zM146.432 183.296l219.136 0 0-73.728-219.136 0 0 73.728zM72.704 292.864l878.592 0 0-146.432-473.088 0-36.864 72.704-368.64 0 0 73.728zM1024 146.432l0 731.136q0 30.72-21.504 52.224t-51.2 21.504l-878.592 0q-29.696 0-51.2-21.504t-21.504-52.224l0-731.136q0-30.72 21.504-52.224t51.2-21.504l878.592 0q29.696 0 51.2 21.504t21.504 52.224z" fill="#1196db"></path></g></g></svg>