<?xml version="1.0" standalone="no"?><!DOCTYPE svg PUBLIC "-//W3C//DTD SVG 1.1//EN" "http://www.w3.org/Graphics/SVG/1.1/DTD/svg11.dtd"><svg width="200" height="200" viewBox="0 0 200 200" version="1.1" xmlns="http://www.w3.org/2000/svg" xmlns:xlink="http://www.w3.org/1999/xlink"><defs><style type="text/css"><![CDATA[
@font-face { font-family: ifont; src: url("http://at.alicdn.com/t/font_1442373896_4754455.eot?#iefix") format("embedded-opentype"), url("http://at.alicdn.com/t/font_1442373896_4754455.woff") format("woff"), url("http://at.alicdn.com/t/font_1442373896_4754455.ttf") format("truetype"), url("http://at.alicdn.com/t/font_1442373896_4754455.svg#ifont") format("svg"); }

]]></style></defs><g class="transform-group"><g transform="scale(0.1953125, 0.1953125)"><path d="M826.800709 295.638277l-193.926758 0c22.12388-1.189082 68.301596-7.797593 102.899578-40.695864 27.764344-26.387997 41.837874-62.866816 41.837874-108.416222 0-38.880519-40.22412-67.113537-95.646384-67.113537-40.666188 0-80.640622 15.529695-109.672842 42.62889-21.654182 20.218484-46.901193 55.831586-53.357232 114.758674l-13.875009 0c-6.449899-58.914808-31.703049-94.542236-53.354162-114.758674C422.674579 94.941326 382.700145 79.412654 342.033957 79.412654c-55.422264 0-95.646384 28.233018-95.646384 67.113537 0 45.549406 14.074553 82.028225 41.837874 108.435665 34.336016 32.631188 80.068593 39.395242 101.764732 40.676421L197.198268 295.638277c-32.598442 0-59.025325 26.434046-59.025325 59.041698l0 177.128163c0 31.989575 25.438369 58.019415 57.18235 58.994626l0 291.585985c0 34.354436 26.425859 62.198597 59.025325 62.198597l267.455401 0 19.683295 0 224.410026 0c32.598442 0 59.025325-27.844162 59.025325-62.198597l0-291.539936 1.846044 0c32.598442 0 59.025325-26.434046 59.025325-59.041698L885.826034 354.679975C885.826034 322.072323 859.399151 295.638277 826.800709 295.638277zM652.097782 142.836149c33.067116-9.840112 60.801784-0.980327 66.48011 5.304819-0.278339 28.15627-7.877411 49.028647-23.210631 63.769372-27.514657 26.426883-72.003917 24.908296-73.7814 24.888853l-43.192731 0C587.673493 172.049494 627.273397 150.196791 652.097782 142.836149zM305.422108 148.140968c5.687536-6.285147 33.393551-15.144932 66.48011-5.304819 24.828478 7.359618 64.417125 29.224602 73.707722 93.963045L418.648892 236.799194l0 0.038886-17.744129 0c-0.479931 0-44.470841 1.499144-72.013127-24.678052C313.3865 197.419302 305.700447 176.450734 305.422108 148.140968zM197.198268 374.3602c0-10.869558 8.80862-19.680225 19.675108-19.680225l263.769452 0 0 177.128163L216.873376 531.808138c-10.866489 0-19.675108-8.81169-19.675108-19.680225L197.198268 374.3602zM254.380618 865.644389 254.380618 590.849836l226.26221 0 0 294.571992-206.596312-0.096191C263.184121 885.319497 254.380618 876.507808 254.380618 865.644389zM766.216889 865.853144c0.011256 10.875698-8.80248 19.697621-19.675108 19.692504l-206.873628-0.097214L539.668153 590.849836l226.276537 0L766.216889 865.853144zM826.800709 512.12689c0 10.869558-8.80862 19.680225-19.675108 19.680225L539.668153 531.807115 539.668153 354.679975l267.458471 0c10.866489 0 19.675108 8.81169 19.675108 19.680225L826.801732 512.12689z" fill="#33475f"></path></g></g></svg>