<?xml version="1.0" standalone="no"?><!DOCTYPE svg PUBLIC "-//W3C//DTD SVG 1.1//EN" "http://www.w3.org/Graphics/SVG/1.1/DTD/svg11.dtd"><svg width="200" height="200" viewBox="0 0 200 200" version="1.1" xmlns="http://www.w3.org/2000/svg" xmlns:xlink="http://www.w3.org/1999/xlink"><defs><style type="text/css"><![CDATA[
@font-face { font-family: ifont; src: url("http://at.alicdn.com/t/font_1442373896_4754455.eot?#iefix") format("embedded-opentype"), url("http://at.alicdn.com/t/font_1442373896_4754455.woff") format("woff"), url("http://at.alicdn.com/t/font_1442373896_4754455.ttf") format("truetype"), url("http://at.alicdn.com/t/font_1442373896_4754455.svg#ifont") format("svg"); }

]]></style></defs><g class="transform-group"><g transform="scale(0.1953125, 0.1953125)"><path d="M948.7245 435.190878 737.575432 632.839055c-80.275567 201.905214-164.686542 304.317377-250.800333 304.317377-3.40563 0-7.05452-0.12163-10.46015-0.486519-37.097042-3.52726-65.071861-19.217484-82.951419-46.705785-28.096449-42.692006-21.650077-102.047274-14.595558-135.495427C318.561298 720.169141 132.711197 614.108089 67.031187 579.930158c-1.459556 18.852595 1.702815 66.166528 13.86578 122.481055l270.869224 155.0778c7.297779 4.135408 12.649483 10.946668 14.717187 19.095855 2.189334 8.149186 0.973037 16.663262-3.162371 23.839411-7.905927 14.230669-28.218078 19.947262-42.813636 11.433187l-283.153819-161.767431c-7.541038-4.135408-13.136002-11.676446-15.082076-20.312151-18.244447-77.478085-31.988597-176.484618 7.05452-207.135289 15.568595-12.406224 36.732153-13.62252 57.895712-2.919112 67.139565 33.813042 322.683454 180.255137 343.117235 192.174843 12.892743 7.419408 18.852595 22.988003 14.109039 37.097042-9.973631 33.448153-15.690224 81.491864 0.973037 106.547571 4.621927 6.93289 13.257632 16.420002 36.488894 18.487706 1.702815 0.12163 3.162371 0.243259 4.743556 0.243259 36.732153 0 80.032308-43.421784 125.035277-124.06224l-61.301342 57.287564c-12.649483 11.554816-33.083264 10.581779-44.394821-1.337926-11.919705-13.136002-11.068298-33.083264 1.581185-44.75971l173.687136-162.497209c49.016748-125.035277 89.884309-269.531298 113.72372-370.362276l-388.363464-72.612899L259.449289 541.008671c-6.081482 15.811854-25.177337 24.2043-40.745932 18.122817-7.662668-2.797482-13.86578-8.757335-17.39304-16.541632-3.40563-7.662668-3.648889-16.298373-0.486519-24.08267l156.902245-409.283763c4.500297-12.041335 16.298373-20.312151 29.312745-20.312151l5.959853 0.608148 446.137546 83.559568c8.027557 1.337926 15.568595 6.324742 20.312151 13.500891 4.743556 7.176149 6.446371 15.933484 4.621927 24.2043-5.959853 27.001782-34.664449 153.618244-79.789049 292.397672L906.032494 388.971612c12.649483-11.554816 33.569783-10.46015 44.516451 1.702815 5.716593 6.081482 8.757335 14.109039 8.392446 22.623114C958.576501 421.689987 954.927612 429.474284 948.7245 435.190878L948.7245 435.190878zM662.894829 439.934434c16.420002 5.351704 25.663856 22.866374 20.67704 39.286376-4.257038 13.379261-16.298373 22.258225-30.164153 22.258225l-10.703409-1.946074-209.202993-65.071861c-16.663262-5.108445-25.907115-22.866374-20.79867-39.408006 4.135408-13.257632 16.420002-22.136596 30.285782-22.136596l9.122224 1.337926L662.894829 439.934434 662.894829 439.934434zM456.975836 249.948925c3.770519-12.527854 16.055113-21.771707 29.920893-21.771707l9.852001 1.581185 210.17603 65.315121c8.270816 2.675852 14.717187 8.149186 18.609336 15.690224 3.892149 7.419408 4.500297 15.933484 1.946074 23.961041-3.770519 12.649483-16.176743 21.771707-29.920893 21.771707l-9.243853-1.337926-210.662549-65.55838c-8.270816-2.675852-14.960447-8.392446-18.852595-15.933484C454.908132 266.368927 454.299984 257.854852 456.975836 249.948925L456.975836 249.948925zM618.864897 552.685117c7.905927 2.432593 14.473928 7.905927 18.487706 15.325336 3.892149 7.541038 4.743556 16.055113 2.189334 24.08267-4.378667 13.257632-16.420002 22.014966-30.164153 22.014966l-10.581779-1.946074-209.202993-65.071861c-7.905927-2.432593-14.473928-7.905927-18.487706-15.203706-3.892149-7.419408-4.743556-15.933484-2.310963-24.08267 4.135408-13.257632 16.176743-22.258225 30.042523-22.258225l9.852001 1.581185L618.864897 552.685117 618.864897 552.685117zM926.831163 370.605535M983.632209 365.740349m-36.124005 0a29.7 29.7 0 1 0 72.24801 0 29.7 29.7 0 1 0-72.24801 0Z" fill="#272636"></path></g></g></svg>