<?xml version="1.0" standalone="no"?><!DOCTYPE svg PUBLIC "-//W3C//DTD SVG 1.1//EN" "http://www.w3.org/Graphics/SVG/1.1/DTD/svg11.dtd"><svg width="200" height="200" viewBox="0 0 200 200" version="1.1" xmlns="http://www.w3.org/2000/svg" xmlns:xlink="http://www.w3.org/1999/xlink"><defs><style type="text/css"><![CDATA[
@font-face { font-family: ifont; src: url("http://at.alicdn.com/t/font_1442373896_4754455.eot?#iefix") format("embedded-opentype"), url("http://at.alicdn.com/t/font_1442373896_4754455.woff") format("woff"), url("http://at.alicdn.com/t/font_1442373896_4754455.ttf") format("truetype"), url("http://at.alicdn.com/t/font_1442373896_4754455.svg#ifont") format("svg"); }

]]></style></defs><g class="transform-group"><g transform="scale(0.1953125, 0.1953125)"><path d="M512 1016.869c-278.378 0-504.869-226.493-504.869-504.869s226.493-504.869 504.869-504.869c278.3 0 504.793 226.493 504.793 504.869s-226.493 504.869-504.793 504.869zM512 84.724c-235.581 0-427.198 191.618-427.198 427.198 0 235.503 191.618 427.198 427.198 427.198 235.503 0 427.12-191.851 427.12-427.198 0-235.503-191.618-427.198-427.12-427.198zM695.617 383.297l-54.915-54.915-128.703 128.703-128.703-128.703-54.915 54.915 128.703 128.703-128.703 128.703 54.915 54.915 128.703-128.703 128.703 128.703 54.915-54.915-128.703-128.703z" fill="#272636"></path></g></g></svg>