<?xml version="1.0" standalone="no"?><!DOCTYPE svg PUBLIC "-//W3C//DTD SVG 1.1//EN" "http://www.w3.org/Graphics/SVG/1.1/DTD/svg11.dtd"><svg width="200" height="200" viewBox="0 0 200 200" version="1.1" xmlns="http://www.w3.org/2000/svg" xmlns:xlink="http://www.w3.org/1999/xlink"><defs><style type="text/css"><![CDATA[
@font-face { font-family: ifont; src: url("http://at.alicdn.com/t/font_1442373896_4754455.eot?#iefix") format("embedded-opentype"), url("http://at.alicdn.com/t/font_1442373896_4754455.woff") format("woff"), url("http://at.alicdn.com/t/font_1442373896_4754455.ttf") format("truetype"), url("http://at.alicdn.com/t/font_1442373896_4754455.svg#ifont") format("svg"); }

]]></style></defs><g class="transform-group"><g transform="scale(0.1953125, 0.1953125)"><path d="M902.124743 64.413032 183.767885 64.413032l0 119.357412-87.303368 0c-16.435321 0-32.054043 11.657504-32.054043 28.090778l0 59.677171c0 16.435321 15.619746 31.588439 32.054043 31.588439l87.303368 0 0 59.677171-87.303368 0c-16.435321 0-32.054043 11.656481-32.054043 28.089755l0 59.678194c0 16.435321 15.619746 31.588439 32.054043 31.588439l87.303368 0 0 59.678194-87.303368 0c-16.435321 0-32.054043 11.655458-32.054043 28.089755l0 59.679217c0 16.433274 15.619746 31.586392 32.054043 31.586392l87.303368 0 0 59.679217-87.303368 0c-16.435321 0-32.054043 11.654434-32.054043 28.088732l0 59.679217c0 16.433274 15.619746 31.586392 32.054043 31.586392l87.303368 0L183.767885 959.587991l718.356858 0c32.926924 0 57.46376-28.556383 57.46376-61.426001L959.588503 122.342396C959.589526 89.357144 935.05269 64.413032 902.124743 64.413032zM362.803491 899.911844l-119.358435 0 0-59.679217 32.054043 0c16.375969 0 27.624151-15.154141 27.624151-31.586392l0-59.679217c0-16.434298-11.189853-28.088732-27.624151-28.088732l-32.054043 0 0-59.679217 32.054043 0c16.375969 0 27.624151-15.153118 27.624151-31.586392l0-59.679217c0-16.434298-11.189853-28.089755-27.624151-28.089755l-32.054043 0 0-59.678194 32.054043 0c16.375969 0 27.624151-15.153118 27.624151-31.587416l0-59.679217c0-16.433274-11.189853-28.089755-27.624151-28.089755l-32.054043 0 0-59.677171 32.054043 0c16.375969 0 27.624151-15.154141 27.624151-31.587416l0-59.678194c0-16.435321-11.189853-28.089755-27.624151-28.089755l-32.054043 0 0-59.678194 119.358435 0L362.803491 899.911844z" fill="#ad4da4"></path></g></g></svg>