<?xml version="1.0" standalone="no"?><!DOCTYPE svg PUBLIC "-//W3C//DTD SVG 1.1//EN" "http://www.w3.org/Graphics/SVG/1.1/DTD/svg11.dtd"><svg width="200" height="200" viewBox="0 0 200 200" version="1.1" xmlns="http://www.w3.org/2000/svg" xmlns:xlink="http://www.w3.org/1999/xlink"><defs><style type="text/css"><![CDATA[
@font-face { font-family: ifont; src: url("http://at.alicdn.com/t/font_1442373896_4754455.eot?#iefix") format("embedded-opentype"), url("http://at.alicdn.com/t/font_1442373896_4754455.woff") format("woff"), url("http://at.alicdn.com/t/font_1442373896_4754455.ttf") format("truetype"), url("http://at.alicdn.com/t/font_1442373896_4754455.svg#ifont") format("svg"); }

]]></style></defs><g class="transform-group"><g transform="scale(0.1953125, 0.1953125)"><path d="M697.278797 113.412003C621.128443 23.379477 485.407342 36.824697 429.563476 87.487563c-8.571213 7.760754-73.945129-1.110287-103.089913 27.03575-29.131481 28.116361-66.081021 78.764901-66.081021 164.311253s43.685965 139.338489 43.685965 139.338489-0.86981-6.094812-1.877767-15.358803c-2.615571-24.14184-6.217608-70.363558 1.877767-91.362824 11.544941-23.439852 87.372953-32.616862 141.156904-123.775025 35.846416 64.138786 222.947721 102.396111 245.342778 121.55445 18.187221 15.533788 17.682731 101.371782 20.773116 118.543883 0.716314 3.989871 1.614777 4.281513 3.010567-0.876973 7.357572-27.370371 45.657876-81.688487 46.790676-112.055099C762.285347 284.460704 773.47213 203.431226 697.278797 113.412003zM699.067536 333.562005c-2.2656-7.117095-5.02648-12.700253-8.490372-15.665795C668.182109 298.737872 481.080803 260.481569 445.234387 196.35711c-34.911114 59.140958-78.984912 83.734076-108.869546 100.130512-16.074094 9.221012-41.12156 78.913281-9.162684 159.460782 30.951943 70.524217 86.23299 132.119063 182.66732 132.119063 87.73725 0 141.43422-50.92688 173.70725-113.210411 0 0 0.01535-0.058328 0.029676-0.071631 1.489934-2.879584 2.828418-5.831822 4.223185-8.754385C702.122105 431.865915 707.733916 367.158171 699.067536 333.562005zM644.23879 573.615313 511.864924 723.240075C572.808948 723.123418 634.45496 641.187291 644.23879 573.615313zM511.864924 723.240075l-132.3534-149.566434C389.30968 641.259946 450.942389 723.123418 511.864924 723.240075zM676.789137 582.208015c-12.691043 76.369342-76.711126 161.03872-147.959843 173.079964-0.182149 0.058328-0.342808 0.073678-0.524956 0.116657-4.479011 116.482945-59.849086 185.587835-150.299121 185.587835-81.651648 0-111.857601-53.104475-116.422569-81.219813-0.227174-1.417279 0.035816-2.747577 0.167822-4.120854-47.682999-7.832386-84.121909-49.145303-84.121909-99.047854 0-55.501058 45.016263-100.510158 100.487645-100.510158 55.487755 0 100.496855 45.0091 100.496855 100.510158 0 49.758264-36.226063 90.981131-83.71361 98.989525 1.966795 8.826016 15.052834 51.907207 83.105766 51.907207 96.178503 0 114.38619-96.755648 116.900453-152.212704-71.233368-12.041244-135.217634-96.637967-147.94654-173.006286C204.743104 623.738897 43.033096 719.367885 43.033096 907.499659c0 6.91141 0 13.005198 0 18.675338 0 27.751041 22.50455 50.240241 50.247404 50.240241l421.856957 0 415.58102 0c27.742854 0 50.247404-22.4892 50.247404-50.240241 0-5.67014 0-11.762905 0-18.675338C980.965881 719.266577 819.058374 623.592564 676.789137 582.208015zM278.380218 721.940476c-18.500353 0-33.493835 15.007809-33.493835 33.492812 0 18.501376 14.993482 33.493835 33.493835 33.493835 18.501376 0 33.500998-14.992459 33.500998-33.493835C311.881217 736.947262 296.881594 721.940476 278.380218 721.940476zM278.380218 689.409572c-36.979216 0-66.99381 30.001291-66.99381 66.98767 0 37.030381 30.014594 67.016323 66.99381 67.016323 37.001729 0 66.995857-29.985942 66.995857-67.016323C345.375052 719.410863 315.381947 689.409572 278.380218 689.409572zM278.380218 805.674553c-27.706015 0-50.240241-22.534226-50.240241-50.241264 0-27.706015 22.534226-50.255591 50.240241-50.255591 27.707039 0 50.247404 22.549575 50.247404 50.255591C328.627622 783.140327 306.087257 805.674553 278.380218 805.674553z" fill="#272636"></path></g></g></svg>