<?xml version="1.0" standalone="no"?><!DOCTYPE svg PUBLIC "-//W3C//DTD SVG 1.1//EN" "http://www.w3.org/Graphics/SVG/1.1/DTD/svg11.dtd"><svg width="200" height="200" viewBox="0 0 200 200" version="1.1" xmlns="http://www.w3.org/2000/svg" xmlns:xlink="http://www.w3.org/1999/xlink"><defs><style type="text/css"><![CDATA[
@font-face { font-family: ifont; src: url("http://at.alicdn.com/t/font_1442373896_4754455.eot?#iefix") format("embedded-opentype"), url("http://at.alicdn.com/t/font_1442373896_4754455.woff") format("woff"), url("http://at.alicdn.com/t/font_1442373896_4754455.ttf") format("truetype"), url("http://at.alicdn.com/t/font_1442373896_4754455.svg#ifont") format("svg"); }

]]></style></defs><g class="transform-group"><g transform="scale(0.1953125, 0.1953125)"><path d="M512.002045 1024c-69.100798 0-136.15703-13.545504-199.306278-40.251749-60.968583-25.787316-115.722628-62.698994-162.732292-109.704564-47.019897-47.02399-83.931574-101.787244-109.709681-162.741501-26.711362-63.140039-40.251749-130.200364-40.251749-199.306278s13.540388-136.15703 40.251749-199.292975c25.777083-60.963467 62.684668-115.717512 109.704564-162.741501 47.00557-47.00557 101.754498-83.922365 162.737408-109.718891 63.158459-26.701129 130.21469-40.24254 199.306278-40.24254 69.096704 0 136.152936 13.540388 199.302185 40.24254 60.977793 25.791409 115.731838 62.704111 162.732292 109.709681 47.019897 47.033199 83.936691 101.787244 109.7281 162.750711 26.697035 63.130829 40.23333 130.181945 40.23333 199.292975 0 69.115124-13.536294 136.176472-40.23333 199.306278-25.791409 60.963467-62.708204 115.717512-109.7281 162.741501-47.010687 47.01478-101.759615 83.917248-162.732292 109.695355C648.1734 1010.454496 581.117169 1024 512.002045 1024zM512.002045 61.404512c-248.460792 0-450.595488 202.134697-450.595488 450.590372 0 248.460792 202.134697 450.590372 450.595488 450.590372s450.595488-202.130603 450.595488-450.590372C962.59651 263.539208 760.461813 61.404512 512.002045 61.404512zM359.095539 748.007155c-7.841595 0-15.046694-3.583618-19.765159-9.840112-3.977591-5.272074-5.666046-11.772115-4.751211-18.320251 0.914836-6.537903 4.324492-12.334933 9.600659-16.312524 1.477654-1.116427 36.733623-27.287483 94.625124-40.23333 21.48636-4.802376 43.605124-7.232728 65.75254-7.232728 12.579503 0 25.355481 0.787946 37.981033 2.345418 43.37488 5.328355 86.947258 19.84907 129.502469 43.178405 11.946077 6.537903 16.34527 21.593807 9.81146 33.55421-4.342912 7.93574-12.663414 12.860912-21.720697 12.860912-4.122901 0-8.226359-1.060145-11.861142-3.057639-47.88766-26.227338-96.088452-39.529295-143.253658-39.529295-18.531052 0-37.179784 2.064009-55.429427 6.14393-47.281863 10.571776-75.338872 31.246655-75.620281 31.461549C369.647873 746.281861 364.502689 748.007155 359.095539 748.007155zM866.864168 449.305099c-1.659803 0-3.329838-0.168846-4.957919-0.506537L591.894629 393.85316c-13.358239-2.725064-22.011316-15.805988-19.295462-29.15911 2.336208-11.472286 12.523221-19.801998 24.220634-19.801998 1.632173 0 3.282766 0.163729 4.943592 0.50142l270.021853 54.964846c6.468318 1.312902 12.040221 5.070482 15.689331 10.576893 3.643993 5.511527 4.925173 12.105712 3.607154 18.582217C888.753711 440.980503 878.571814 449.305099 866.864168 449.305099zM153.540953 449.305099c-11.692297 0-21.8701-8.325619-24.201192-19.797905-2.715855-13.358239 5.942339-26.434046 19.295462-29.153994l270.025946-54.959729c1.660826-0.337691 3.315512-0.50142 4.947685-0.50142 11.70253 0 21.884426 8.329712 24.206308 19.807115 2.725064 13.338796-5.92392 26.424836-19.277042 29.153994l-270.044366 54.95052C156.885118 449.136254 155.210989 449.305099 153.540953 449.305099z" fill="#eb4f38"></path></g></g></svg>