<?xml version="1.0" standalone="no"?><!DOCTYPE svg PUBLIC "-//W3C//DTD SVG 1.1//EN" "http://www.w3.org/Graphics/SVG/1.1/DTD/svg11.dtd"><svg width="200" height="200" viewBox="0 0 200 200" version="1.1" xmlns="http://www.w3.org/2000/svg" xmlns:xlink="http://www.w3.org/1999/xlink"><defs><style type="text/css"><![CDATA[
@font-face { font-family: ifont; src: url("http://at.alicdn.com/t/font_1442373896_4754455.eot?#iefix") format("embedded-opentype"), url("http://at.alicdn.com/t/font_1442373896_4754455.woff") format("woff"), url("http://at.alicdn.com/t/font_1442373896_4754455.ttf") format("truetype"), url("http://at.alicdn.com/t/font_1442373896_4754455.svg#ifont") format("svg"); }

]]></style></defs><g class="transform-group"><g transform="scale(0.1953125, 0.1953125)"><path d="M511.962138 28.606525c-266.832208 0-483.140719 216.309534-483.140719 483.140719s216.309534 483.140719 483.140719 483.140719 483.140719-216.309534 483.140719-483.140719S778.794345 28.606525 511.962138 28.606525zM511.962138 954.62598c-244.594741 0-442.87976-198.283995-442.87976-442.87976S267.366374 68.866461 511.962138 68.866461s442.87976 198.283995 442.87976 442.87976S756.557902 954.62598 511.962138 954.62598zM262.842337 527.096836c0.164752-40.668235 19.918655-73.529667 44.262086-73.529667 24.445762 0 44.26311 33.138748 44.26311 74.016761s-19.816325 74.016761-44.26311 74.016761c-24.343431 0-44.096311-32.861432-44.262086-73.503061L262.842337 527.096836zM670.492734 527.096836c0.164752-40.668235 19.918655-73.529667 44.262086-73.529667 24.445762 0 44.26311 33.138748 44.26311 74.016761s-19.816325 74.016761-44.26311 74.016761c-24.343431 0-44.096311-32.861432-44.262086-73.503061L670.492734 527.096836zM447.040523 734.697011c0.781806-12.010545 28.880771-21.643949 63.427588-21.643949 35.039028 0 63.442938 9.908674 63.442938 22.131043s-28.40391 22.131043-63.442938 22.131043c-34.546817 0-62.644759-9.632381-63.425541-21.618367L447.040523 734.697011z" fill="#8a8a8a"></path></g></g></svg>