<?xml version="1.0" standalone="no"?><!DOCTYPE svg PUBLIC "-//W3C//DTD SVG 1.1//EN" "http://www.w3.org/Graphics/SVG/1.1/DTD/svg11.dtd"><svg width="200" height="200" viewBox="0 0 200 200" version="1.1" xmlns="http://www.w3.org/2000/svg" xmlns:xlink="http://www.w3.org/1999/xlink"><defs><style type="text/css"><![CDATA[
@font-face { font-family: ifont; src: url("http://at.alicdn.com/t/font_1442373896_4754455.eot?#iefix") format("embedded-opentype"), url("http://at.alicdn.com/t/font_1442373896_4754455.woff") format("woff"), url("http://at.alicdn.com/t/font_1442373896_4754455.ttf") format("truetype"), url("http://at.alicdn.com/t/font_1442373896_4754455.svg#ifont") format("svg"); }

]]></style></defs><g class="transform-group"><g transform="scale(0.1953125, 0.1953125)"><path d="M512 11.770115C235.731862 11.770115 11.770115 235.731862 11.770115 512c0 276.268138 223.967632 500.229885 500.229885 500.229885s500.229885-223.967632 500.229885-500.229885C1012.229885 235.731862 788.268138 11.770115 512 11.770115zM512 988.689655c-262.850207 0-476.689655-213.833563-476.689655-476.689655C35.310345 249.149793 249.149793 35.310345 512 35.310345s476.689655 213.833563 476.689655 476.689655C988.689655 774.850207 774.850207 988.689655 512 988.689655zM291.504552 432.828322m-61.181057 0a10.396 10.396 0 1 0 122.362115 0 10.396 10.396 0 1 0-122.362115 0ZM732.689655 426.666667m-61.787218 0a10.499 10.499 0 1 0 123.574437 0 10.499 10.499 0 1 0-123.574437 0ZM388.384368 281.13508c-4.449103-11.381701-17.031356-17.090207-28.101149-12.75292l-150.274943 58.84469c-11.069793 4.331402-16.43108 17.066667-11.970207 28.436598l4.031264 10.304736c4.449103 11.381701 17.031356 17.090207 28.101149 12.75292l150.274943-58.84469c11.069793-4.331402 16.43108-17.066667 11.981977-28.448368L388.384368 281.13508zM823.449011 323.248552l-152.852598-51.788506c-11.25223-3.807632-23.56377 2.483494-27.477333 14.053517l-3.54869 10.469517c-3.925333 11.570023 2.02446 24.046345 13.27669 27.853977l152.852598 51.788506c11.25223 3.819402 23.552-2.471724 27.477333-14.041747l3.54869-10.475402C840.651034 339.538391 834.701241 327.067954 823.449011 323.248552zM692.806621 660.179862c-6.138115-8.909977-18.143632-11.29931-26.812322-5.331862l-117.72469 81.037241c-8.674575 5.973333-10.72846 18.025931-4.59623 26.947678l5.555494 8.062529c6.138115 8.915862 18.143632 11.29931 26.812322 5.331862l117.72469-81.031356c8.674575-5.973333 10.72846-18.037701 4.59623-26.947678L692.806621 660.179862z" fill="#8a8a8a"></path></g></g></svg>