<?xml version="1.0" standalone="no"?><!DOCTYPE svg PUBLIC "-//W3C//DTD SVG 1.1//EN" "http://www.w3.org/Graphics/SVG/1.1/DTD/svg11.dtd"><svg width="200" height="200" viewBox="0 0 200 200" version="1.1" xmlns="http://www.w3.org/2000/svg" xmlns:xlink="http://www.w3.org/1999/xlink"><defs><style type="text/css"><![CDATA[
@font-face { font-family: ifont; src: url("http://at.alicdn.com/t/font_1442373896_4754455.eot?#iefix") format("embedded-opentype"), url("http://at.alicdn.com/t/font_1442373896_4754455.woff") format("woff"), url("http://at.alicdn.com/t/font_1442373896_4754455.ttf") format("truetype"), url("http://at.alicdn.com/t/font_1442373896_4754455.svg#ifont") format("svg"); }

]]></style></defs><g class="transform-group"><g transform="scale(0.1953125, 0.1953125)"><path d="M512 0c-282.8 0-512 229.2-512 512 0 282.8 229.2 512 512 512 282.8 0 512-229.2 512-512C1024 229.2 794.8 0 512 0zM770.1 592.2c-51.1 61.9-126.8 129.6-214.4 208l-7.5 6.7L512 838.8l0 0-36.5-32.1-7.2-6.5c-87.5-78.3-163.2-146-214.4-207.9-53.2-64.4-76.9-118.5-76.9-175.2 0-47.1 17.9-90.7 50.5-122.6 32.3-31.7 76.2-49.2 123.6-49.2 54.3 0 107.9 24.6 143.4 65.8l17.5 20.3 17.5-20.3c35.6-41.2 89.2-65.8 143.4-65.8 47.4 0 91.3 17.5 123.6 49.2 32.6 31.9 50.5 75.5 50.5 122.6C847.1 473.7 823.3 527.7 770.1 592.2z" fill="#d87474"></path></g></g></svg>