<?xml version="1.0" standalone="no"?><!DOCTYPE svg PUBLIC "-//W3C//DTD SVG 1.1//EN" "http://www.w3.org/Graphics/SVG/1.1/DTD/svg11.dtd"><svg width="200" height="200" viewBox="0 0 200 200" version="1.1" xmlns="http://www.w3.org/2000/svg" xmlns:xlink="http://www.w3.org/1999/xlink"><defs><style type="text/css"><![CDATA[
@font-face { font-family: ifont; src: url("http://at.alicdn.com/t/font_1442373896_4754455.eot?#iefix") format("embedded-opentype"), url("http://at.alicdn.com/t/font_1442373896_4754455.woff") format("woff"), url("http://at.alicdn.com/t/font_1442373896_4754455.ttf") format("truetype"), url("http://at.alicdn.com/t/font_1442373896_4754455.svg#ifont") format("svg"); }

]]></style></defs><g class="transform-group"><g transform="scale(0.1953125, 0.1953125)"><path d="M398.582 162.488c-0.45-0.455-0.812-0.929-1.261-1.372-50.332-50.34-131.915-50.34-182.234 0-49.301 49.255-50.186 128.434-2.977 178.979 41.369-77.415 106.864-139.967 186.473-177.609zM857.414 340.095c47.209-50.544 46.323-129.735-2.977-178.979-50.317-50.34-131.904-50.34-182.234 0-0.451 0.439-0.809 0.916-1.262 1.372 79.611 37.638 145.104 100.192 186.474 177.606zM248.87 513.927c0-157.882 127.999-285.888 285.89-285.888 157.898 0 285.89 128.006 285.89 285.888 0 157.895-127.993 285.889-285.89 285.889-157.893 0-285.89-127.996-285.89-285.889zM730.309 784.071c83.579-60.621 137.99-159.001 137.99-270.143 0-184.195-149.33-333.536-333.538-333.536-184.208 0-333.539 149.341-333.539 333.536 0 111.145 54.416 209.523 137.991 270.143l-58.037 58.028c-9.292 9.277-9.292 24.406 0 33.684 4.507 4.503 10.485 6.983 16.843 6.983 6.373 0 12.353-2.481 16.855-6.983l65.97-65.965c46.063 24.012 98.38 37.65 153.917 37.65s107.854-13.65 153.917-37.65l65.97 65.965c4.503 4.503 10.483 6.983 16.855 6.983 6.358 0 12.351-2.481 16.841-6.983 9.292-9.277 9.292-24.406 0-33.684l-58.034-58.028zM534.754 179c-184.847 0-334.697 149.851-334.697 334.697s149.851 334.697 334.697 334.697c184.851 0 334.699-149.849 334.699-334.697-0.001-184.847-149.851-334.697-334.699-334.697zM687.124 733.776c-37.069 26.318-87.353 19.159-112.305-15.986l-213.673-300.972c-24.955-35.151-15.133-84.979 21.936-111.296s87.348-19.159 112.305 15.991l213.674 300.967c24.953 35.15 15.133 84.976-21.936 111.294zM488.586 576.412l91.849 134.011c15.079 20.902 40.389 32.263 66.055 29.654 12.554-1.277 24.633-5.876 34.929-13.306 15.664-11.305 25.994-28.031 29.083-47.105 3.087-19.071-1.436-38.203-12.739-53.877l-95.78-130.209-113.395 80.832z" fill="#e8ad3f"></path></g></g></svg>