<?xml version="1.0" standalone="no"?><!DOCTYPE svg PUBLIC "-//W3C//DTD SVG 1.1//EN" "http://www.w3.org/Graphics/SVG/1.1/DTD/svg11.dtd"><svg width="200" height="200" viewBox="0 0 200 200" version="1.1" xmlns="http://www.w3.org/2000/svg" xmlns:xlink="http://www.w3.org/1999/xlink"><defs><style type="text/css"><![CDATA[
@font-face { font-family: ifont; src: url("http://at.alicdn.com/t/font_1442373896_4754455.eot?#iefix") format("embedded-opentype"), url("http://at.alicdn.com/t/font_1442373896_4754455.woff") format("woff"), url("http://at.alicdn.com/t/font_1442373896_4754455.ttf") format("truetype"), url("http://at.alicdn.com/t/font_1442373896_4754455.svg#ifont") format("svg"); }

]]></style></defs><g class="transform-group"><g transform="scale(0.1953125, 0.1953125)"><path d="M511.220839 0C229.117375 0 0.429719 229.237004 0.429719 512.011018c0 282.767718 228.687656 511.988982 510.79112 511.988982 282.098742 0 510.784824-229.221263 510.784824-511.988982C1022.007237 229.237004 793.321155 0 511.220839 0zM818.537635 790.868766c-60.105573-29.20358-38.023051-6.379675-116.663209-38.828971-80.491255-33.162347-99.546854-43.988748-99.546854-43.988748l-0.69731-76.044529c0 0 30.138573-22.760942 39.540448-94.670409 18.805324 5.413201 25.183424-21.955022 26.198695-39.428689 1.123881-16.88969 11.127047-69.537355-11.887319-64.838779 4.70015-35.15511 8.403919-66.938578 6.725969-83.766879-5.761068-59.041507-46.792153-120.713272-150.385922-125.210368-88.057773 4.512837-145.216701 66.198768-150.99351 125.256016-1.663784 16.826727 1.725172 48.581862 6.426897 83.785768-23.0002-4.748946-13.107218 47.991589-12.093521 64.867112 1.109714 17.473667 7.346149 44.937908 26.214435 39.507392 9.354653 71.923633 39.493226 94.860871 39.493226 94.860871l-0.760272 76.439618c0 0-19.057174 11.572507-99.52954 44.717539-78.646454 32.465037-56.573377 8.199291-116.683672 37.341482C137.188983 717.057831 96.200398 619.439203 96.200398 512.011018c0-229.762741 185.810196-416.007378 415.020441-416.007378 229.214967 0 415.018867 186.244638 415.018867 416.007378C926.239706 619.454944 885.257418 717.057831 818.537635 790.868766z" fill="#1195db"></path></g></g></svg>