<?xml version="1.0" standalone="no"?><!DOCTYPE svg PUBLIC "-//W3C//DTD SVG 1.1//EN" "http://www.w3.org/Graphics/SVG/1.1/DTD/svg11.dtd"><svg width="200" height="200" viewBox="0 0 200 200" version="1.1" xmlns="http://www.w3.org/2000/svg" xmlns:xlink="http://www.w3.org/1999/xlink"><defs><style type="text/css"><![CDATA[
@font-face { font-family: ifont; src: url("http://at.alicdn.com/t/font_1442373896_4754455.eot?#iefix") format("embedded-opentype"), url("http://at.alicdn.com/t/font_1442373896_4754455.woff") format("woff"), url("http://at.alicdn.com/t/font_1442373896_4754455.ttf") format("truetype"), url("http://at.alicdn.com/t/font_1442373896_4754455.svg#ifont") format("svg"); }

]]></style></defs><g class="transform-group"><g transform="scale(0.1953125, 0.1953125)"><path d="M646.247029 575.333444c-3.070942-11.158131-7.543813-21.727861-13.162788-31.575136 6.378268-8.624425 28.428469-40.774659 12.536524-56.650231l-8.138354-8.594749c-13.568017-13.580297-48.244794 7.618515-56.667627 13.111622-9.957793-5.656837-20.676925-10.136871-31.977295-13.186324-1.804089-10.778484-9.720386-48.437176-32.05302-48.437176l-8.942673 0c-19.186991 0-30.190603 38.940894-32.635281 48.706305-11.166317 3.107781-21.722744 7.602142-31.531134 13.238512-7.751544-5.762237-40.96704-28.721135-57.172117-12.515035l-8.617261 7.237845c-14.117532 14.133905 9.347902 51.395554 13.656021 57.918108-5.439896 9.691733-9.79304 20.059871-12.805654 31.023574-9.361205 1.476631-49.346895 9.198499-49.346895 32.216749l0 8.936533c0 19.940145 41.951461 31.017434 49.612954 32.865525 3.027963 10.859325 7.394411 21.169135 12.837376 30.776957-4.502547 7.065929-27.074635 44.165896-13.074783 58.179051l8.154727 6.77531c18.426675 18.411325 56.920384-11.842723 56.920384-11.842723l-1.790786-1.908466c10.213619 6.051833 21.26021 10.822486 32.948413 14.103206 1.922792 7.855922 12.984732 49.508577 32.844036 49.508577l8.942673 0c26.059516 0 32.514531-48.643883 32.514531-48.643883l-2.385327-0.046049c11.80793-3.004427 23.019273-7.565303 33.380248-13.378705 8.154727 5.403057 42.250266 26.759457 55.844889 13.142322l9.064446-9.058306c18.172895-18.165732-11.389398-55.339376-12.211113-56.374962 5.622044-9.831926 10.108219-20.380166 13.207813-31.531134 10.169617-2.585895 48.4075-13.551644 48.4075-32.56672l0-8.936533C694.608479 582.586638 649.09489 575.758116 646.247029 575.333444zM512.057817 686.563758c-40.831964 0-73.91443-33.073256-73.91443-73.900104s33.082466-73.90829 73.91443-73.90829c40.804335 0 73.884754 33.081443 73.884754 73.90829S552.862151 686.563758 512.057817 686.563758zM806.838563 188.212616l0-48.160883c0-47.422056-29.934776-75.747171-80.056314-75.747171-50.090838 0-80.027661 28.326139-80.027661 75.747171l0 48.160883-54.235229 0 0-48.160883c0-47.422056-29.906124-75.747171-80.028685-75.747171-50.120514 0-80.026638 28.326139-80.026638 75.747171l0 48.160883-54.265928 0 0-48.160883c0-47.422056-29.9051-75.747171-80.026638-75.747171-50.090838 0-80.026638 28.326139-80.026638 75.747171l0 48.160883-91.89392 0 0 771.483846 771.499196 0L897.750109 188.212616 806.838563 188.212616zM689.630095 140.051733c0-23.397896 10.733459-32.887015 37.152155-32.887015 26.476001 0 37.180807 9.488095 37.180807 32.887015l0 128.830157c0 23.390733-10.704806 32.888038-37.180807 32.888038-26.417673 0-37.152155-9.496282-37.152155-32.888038L689.630095 140.051733zM475.339544 140.051733c0-23.397896 10.704806-32.887015 37.151132-32.887015 26.448372 0 37.181831 9.488095 37.181831 32.887015l0 128.830157c0 23.390733-10.733459 32.888038-37.181831 32.888038-26.446325 0-37.151132-9.496282-37.151132-32.888038L475.339544 140.051733zM260.990664 140.051733c0-23.397896 10.733459-32.887015 37.179784-32.887015 26.448372 0 37.211507 9.488095 37.211507 32.887015l0 128.830157c0 23.390733-10.764158 32.888038-37.211507 32.888038-26.446325 0-37.179784-9.496282-37.179784-32.888038L260.990664 140.051733zM833.464991 895.421576 190.533986 895.421576 190.533986 359.657336l642.932028 0L833.466014 895.421576z" fill="#ea8010"></path></g></g></svg>