<?xml version="1.0" standalone="no"?><!DOCTYPE svg PUBLIC "-//W3C//DTD SVG 1.1//EN" "http://www.w3.org/Graphics/SVG/1.1/DTD/svg11.dtd"><svg width="200" height="200" viewBox="0 0 200 200" version="1.1" xmlns="http://www.w3.org/2000/svg" xmlns:xlink="http://www.w3.org/1999/xlink"><defs><style type="text/css"><![CDATA[
@font-face { font-family: ifont; src: url("http://at.alicdn.com/t/font_1442373896_4754455.eot?#iefix") format("embedded-opentype"), url("http://at.alicdn.com/t/font_1442373896_4754455.woff") format("woff"), url("http://at.alicdn.com/t/font_1442373896_4754455.ttf") format("truetype"), url("http://at.alicdn.com/t/font_1442373896_4754455.svg#ifont") format("svg"); }

]]></style></defs><g class="transform-group"><g transform="scale(0.1953125, 0.1953125)"><path d="M955.674116 189.654454c2.800904 2.823302 4.551852 6.719028 4.551852 11.030218 0 4.2897-1.750949 8.185426-4.551852 11.008728L654.60919 512.744967l299.53195 299.54219c2.844908 2.824325 4.595856 6.719028 4.595856 11.008728 0 4.311189-1.750949 8.207939-4.595856 11.030218L832.848803 955.633936c-2.800904 2.824325-6.69679 4.575202-10.986665 4.575202-4.332856 0-8.228742-1.750877-11.029646-4.575202L511.255514 656.070256 213.167508 954.146049c-2.844908 2.800789-6.740794 4.551666-11.030669 4.551666s-8.185762-1.750877-10.986665-4.551666L69.813833 832.837192c-2.800904-2.824325-4.551852-6.719028-4.551852-11.008728 0-4.311189 1.750949-8.207939 4.551852-11.030218l298.088006-298.054303L68.325884 213.180264c-2.801927-2.823302-4.552876-6.719028-4.552876-11.030218 0-4.2897 1.750949-8.185426 4.552876-11.008728L189.661202 69.832462c2.800904-2.800789 6.69679-4.551666 11.030669-4.551666 4.289875 0 8.185762 1.750877 10.986665 4.551666l299.576977 299.56368L812.32044 68.344574c2.800904-2.823302 6.69679-4.552689 11.030669-4.552689 4.288852 0 8.184738 1.728364 10.985642 4.552689L955.674116 189.654454z" fill="#7cba59"></path></g></g></svg>