<?xml version="1.0" standalone="no"?><!DOCTYPE svg PUBLIC "-//W3C//DTD SVG 1.1//EN" "http://www.w3.org/Graphics/SVG/1.1/DTD/svg11.dtd"><svg width="200" height="200" viewBox="0 0 200 200" version="1.1" xmlns="http://www.w3.org/2000/svg" xmlns:xlink="http://www.w3.org/1999/xlink"><defs><style type="text/css"><![CDATA[
@font-face { font-family: ifont; src: url("http://at.alicdn.com/t/font_1442373896_4754455.eot?#iefix") format("embedded-opentype"), url("http://at.alicdn.com/t/font_1442373896_4754455.woff") format("woff"), url("http://at.alicdn.com/t/font_1442373896_4754455.ttf") format("truetype"), url("http://at.alicdn.com/t/font_1442373896_4754455.svg#ifont") format("svg"); }

]]></style></defs><g class="transform-group"><g transform="scale(0.1953125, 0.1953125)"><path d="M430.080757 96.386234c108.166535 0 260.581854 0.333598 260.581854 0.333598l1.494027-0.034792 1.174756-0.070608c0.318248-0.035816 1.160429-0.069585 2.301416-0.069585 7.322779 0 16.97972 1.685385 21.967314 6.408967 10.500145 9.920954 10.764158 13.573133 11.44875 23.476691 0.245593 3.125177 0.684592 21.3871 0.069585 123.408681l-0.176009 28.90226 28.904307 0 185.006598 0 0 649.211035L81.471035 927.95248 81.471035 278.741445l184.708815 0 28.727275 0 0-28.727275L294.907125 125.165698l0-0.596588 0-0.597611c0-0.070608 0.385786-8.357342 5.373381-14.856359 6.181793-8.04114 11.676947-11.957333 26.234501-12.431124C330.798567 96.543823 352.255251 96.386234 430.080757 96.386234M307.374064 278.741445l28.727275 0L687.818843 278.741445l28.727275 0 0-28.727275 0-97.315396c0.069585-5.145184-0.877997-19.473517-12.011568-31.010271-7.830339-8.077979-18.753109-12.537548-30.798447-12.537548L356.979856 109.150956c-1.685385-0.192382-3.810792-0.332575-6.199189-0.332575-25.143657 0-43.406602 17.594727-43.406602 41.844014l0 99.351775L307.374064 278.741445M391.238101 486.225987l-67.534116 0c-28.691459 0-52.046377 23.336498-52.046377 52.045353L271.657608 676.254971c0 28.709879 23.354917 52.045353 52.046377 52.045353l67.534116 0 0 67.567885c0 28.692482 23.353894 52.046377 52.045353 52.046377l137.738038 0c28.691459 0 52.045353-23.353894 52.045353-52.046377L633.066845 728.300324l67.499323 0c28.727275 0 52.082192-23.336498 52.082192-52.045353L752.64836 538.27134c0-28.709879-23.353894-52.045353-52.082192-52.045353l-67.499323 0 0-67.288522c0-28.692482-23.353894-52.0474-52.045353-52.0474L443.283454 366.890065c-28.692482 0-52.045353 23.354917-52.045353 52.0474L391.238101 486.225987M430.080757 67.64054c-54.118572 0-97.140411 0.086981-104.550171 0.333598-22.194488 0.720408-36.031635 8.007371-48.077995 23.652699-12.009522 15.681144-11.290137 33.538861-11.290137 33.538861l0 124.848473L76.044442 250.01417c-12.888542 0-23.319102 10.413164-23.319102 23.301705l0 660.045801c0 12.888542 10.429537 23.335475 23.319102 23.335475l872.251877 0c12.854772 0 23.319102-10.446933 23.319102-23.335475L971.615421 273.297456c0-12.871145-10.465352-23.301705-23.319102-23.301705L757.846756 249.995751c0.24457-37.699624 0.632403-115.453499-0.141216-125.709073-0.948605-13.59053-2.406816-25.25008-20.369933-42.247196-13.414521-12.642948-32.729425-14.276145-41.702798-14.276145-3.054569 0-4.89959 0.192382-4.89959 0.192382S538.282085 67.64054 430.080757 67.64054L430.080757 67.64054zM336.101339 250.01417c0-30.975479 0-87.586824 0-99.386568 0-11.344373 9.078773-13.099343 14.679327-13.099343 2.476401 0 4.248767 0.350994 4.248767 0.350994s304.130695 0 318.706669 0c14.556531 0 14.08274 14.573927 14.08274 14.573927l0 97.54257L336.101339 249.995751 336.101339 250.01417zM323.721381 699.55463c-12.834306 0-23.300682-10.465352-23.300682-23.300682L300.420699 538.27134c0-12.817933 10.465352-23.336498 23.300682-23.336498l96.27981 0 0-96.016821c0-12.83533 10.255575-23.300682 23.283286-23.300682L581.057307 395.617339c13.026688 0 23.283286 10.465352 23.283286 23.300682l0 96.016821 96.260367 0c12.818957 0 23.319102 10.481725 23.319102 23.336498L723.920062 676.254971c0 12.83533-10.500145 23.300682-23.319102 23.300682l-96.260367 0 0 96.297206c0 12.783141-10.255575 23.301705-23.283286 23.301705L443.283454 819.154565c-13.026688 0-23.283286-10.518564-23.283286-23.301705l0-96.297206L323.721381 699.555653 323.721381 699.55463zM730.30447 512 606.826204 512 606.826204 394.148895 415.12616 394.148895 415.12616 512 291.646871 512 291.646871 704.551434 415.12616 704.551434 415.12616 825.984111 606.826204 825.984111 606.826204 704.551434 730.30447 704.551434Z" fill="#eb4f38"></path></g></g></svg>