<?xml version="1.0" standalone="no"?><!DOCTYPE svg PUBLIC "-//W3C//DTD SVG 1.1//EN" "http://www.w3.org/Graphics/SVG/1.1/DTD/svg11.dtd"><svg width="200" height="200" viewBox="0 0 200 200" version="1.1" xmlns="http://www.w3.org/2000/svg" xmlns:xlink="http://www.w3.org/1999/xlink"><defs><style type="text/css"><![CDATA[
@font-face { font-family: ifont; src: url("http://at.alicdn.com/t/font_1442373896_4754455.eot?#iefix") format("embedded-opentype"), url("http://at.alicdn.com/t/font_1442373896_4754455.woff") format("woff"), url("http://at.alicdn.com/t/font_1442373896_4754455.ttf") format("truetype"), url("http://at.alicdn.com/t/font_1442373896_4754455.svg#ifont") format("svg"); }

]]></style></defs><g class="transform-group"><g transform="scale(0.1953125, 0.1953125)"><path d="M658.918118 443.603237c-178.696892-32.073486-326.84707 4.582365-326.84707 4.582365 87.057775-3.054569 226.044246 16.800641 226.044246 16.800641L367.199103 605.499487c116.946502 18.073634 236.111532 5.805216 297.742195-3.320629l-1.518586-8.851599c-78.520331-4.359284-187.784874-16.84669-187.784874-16.84669L658.918118 443.603237zM511.674589 64.34447c-247.041466 0-447.308629 200.267163-447.308629 447.308629s200.267163 447.308629 447.308629 447.308629 447.308629-200.267163 447.308629-447.308629S758.716055 64.34447 511.674589 64.34447zM663.423735 593.32726c16.60519 0.921999 31.837102 1.480724 44.36851 1.480724 0 0-15.942087 3.38612-42.850947 7.369851l29.332049 171.016978-185.653327-97.603969-185.653327 97.603969 35.456536-206.728318L208.225415 420.062078l207.567429-30.160927 92.827175-188.087772 92.827175 188.087772 207.567429 30.160927L658.81681 566.467519 663.423735 593.32726zM801.843294 432.057273" fill="#ddd30b"></path></g></g></svg>