<?xml version="1.0" standalone="no"?><!DOCTYPE svg PUBLIC "-//W3C//DTD SVG 1.1//EN" "http://www.w3.org/Graphics/SVG/1.1/DTD/svg11.dtd"><svg width="200" height="200" viewBox="0 0 200 200" version="1.1" xmlns="http://www.w3.org/2000/svg" xmlns:xlink="http://www.w3.org/1999/xlink"><defs><style type="text/css"><![CDATA[
@font-face { font-family: ifont; src: url("http://at.alicdn.com/t/font_1442373896_4754455.eot?#iefix") format("embedded-opentype"), url("http://at.alicdn.com/t/font_1442373896_4754455.woff") format("woff"), url("http://at.alicdn.com/t/font_1442373896_4754455.ttf") format("truetype"), url("http://at.alicdn.com/t/font_1442373896_4754455.svg#ifont") format("svg"); }

]]></style></defs><g class="transform-group"><g transform="scale(0.1953125, 0.1953125)"><path d="M728.16 194.624 728.16 172.192c0-25.472-20.672-46.112-46.112-46.112l-75.68 0c6.304-11.392 9.856-25.504 9.856-39.84 0-47.136-38.336-85.536-85.44-85.536-47.104 0-85.408 38.4-85.408 85.536 0 14.336 3.584 28.448 9.888 39.84l-62.08 0c-25.472 0-46.112 20.64-46.112 46.112l0 22.432L244.224 194.624c-38.624 0-69.92 31.328-69.92 69.952l0 689.472C174.304 992.672 205.6 1024 244.224 1024l586.688 0c38.624 0 69.952-31.328 69.952-69.952L900.864 264.576c0-38.624-31.328-69.952-69.952-69.952L728.16 194.624zM479.904 86.272c0-28.096 22.816-51.008 50.848-51.008 28.096 0 50.912 22.912 50.912 51.008 0 16.064-7.488 29.856-19.2 39.84l-63.392 0C487.392 116.096 479.904 102.336 479.904 86.272zM830.944 912.448c0 23.744-19.264 43.008-43.008 43.008L287.232 955.456c-23.744 0-43.008-19.264-43.008-43.008L244.224 307.584c0-23.776 19.264-43.008 43.008-43.008l59.776 0c0 18.912 15.328 34.272 34.24 34.272l312.608 0c18.944 0 34.272-15.328 34.272-34.272l59.776 0c23.744 0 43.008 19.264 43.008 43.008L830.912 912.448zM373.184 419.84m-60.768 0a1.899 1.899 0 1 0 121.536 0 1.899 1.899 0 1 0-121.536 0ZM718.944 385.92 511.68 385.92c-19.072 0-34.56 15.2-34.56 34.272 0 19.072 15.456 34.272 34.56 34.272l207.296 0c19.072 0 34.528-15.2 34.528-34.272C753.472 401.12 738.016 385.92 718.944 385.92zM373.184 592.224m-60.768 0a1.899 1.899 0 1 0 121.536 0 1.899 1.899 0 1 0-121.536 0ZM718.944 557.216 511.68 557.216c-19.072 0-34.56 15.904-34.56 34.976 0 19.072 15.456 34.944 34.56 34.944l207.296 0c19.072 0 34.528-15.872 34.528-34.944C753.472 573.12 738.016 557.216 718.944 557.216zM373.184 776.448m-60.768 0a1.899 1.899 0 1 0 121.536 0 1.899 1.899 0 1 0-121.536 0ZM718.944 741.344 511.68 741.344c-19.072 0-34.56 15.904-34.56 34.976 0 19.072 15.456 34.944 34.56 34.944l207.296 0c19.072 0 34.528-15.904 34.528-34.944C753.472 757.248 738.016 741.344 718.944 741.344z" fill="#ea8010"></path></g></g></svg>