<?xml version="1.0" standalone="no"?><!DOCTYPE svg PUBLIC "-//W3C//DTD SVG 1.1//EN" "http://www.w3.org/Graphics/SVG/1.1/DTD/svg11.dtd"><svg width="200.1953125" height="200" viewBox="0 0 200.1953125 200" version="1.1" xmlns="http://www.w3.org/2000/svg" xmlns:xlink="http://www.w3.org/1999/xlink"><defs><style type="text/css"><![CDATA[
@font-face { font-family: ifont; src: url("http://at.alicdn.com/t/font_1442373896_4754455.eot?#iefix") format("embedded-opentype"), url("http://at.alicdn.com/t/font_1442373896_4754455.woff") format("woff"), url("http://at.alicdn.com/t/font_1442373896_4754455.ttf") format("truetype"), url("http://at.alicdn.com/t/font_1442373896_4754455.svg#ifont") format("svg"); }

]]></style></defs><g class="transform-group"><g transform="scale(0.1953125, 0.1953125)"><path d="M1024.064 654C1024.064 738.56 955.888 807.136 871.504 807.92 782.128 910.848 650.496 976 503.568 976 399.792 976 303.648 943.44 224.608 888.112 223.392 889.568 222.384 891.136 221.008 892.512L108.576 1004.944C83.728 1029.776 43.456 1029.776 18.624 1004.944-6.208 980.112-6.208 939.84 18.624 914.992L131.008 802.608C59.344 717.648 16.064 607.904 16.064 488 16.064 218.48 234.32 0 503.568 0 772.8 0 991.056 218.48 991.056 488 991.056 510.224 989.44 532.048 986.576 553.472 1009.872 580.464 1024.064 615.552 1024.064 654ZM496.064 864C517.44 864 538.272 861.872 558.672 858.496L117.6 417.424C114.256 437.84 112.064 458.64 112.064 480 112.064 692.08 283.984 864 496.064 864ZM496.064 96C343.472 96 212.048 185.232 150.112 314.176L661.792 825.84C697.296 808.688 729.952 786.56 758.416 759.872 732.224 732.256 716.064 695.056 716.064 654 716.064 568.944 785.008 500 870.064 500 873.088 500 876.048 500.288 879.024 500.448 879.392 493.632 880.064 486.912 880.064 480 880.064 267.92 708.144 96 496.064 96ZM872.096 591.968C841.168 591.968 816.112 617.056 816.112 648.016 816.112 678.96 841.168 704.048 872.096 704.048 903.008 704.048 928.064 678.96 928.064 648.016 928.064 617.056 903.008 591.968 872.096 591.968Z" fill="#8a8a8a"></path></g></g></svg>