<?xml version="1.0" standalone="no"?><!DOCTYPE svg PUBLIC "-//W3C//DTD SVG 1.1//EN" "http://www.w3.org/Graphics/SVG/1.1/DTD/svg11.dtd"><svg width="200" height="200" viewBox="0 0 200 200" version="1.1" xmlns="http://www.w3.org/2000/svg" xmlns:xlink="http://www.w3.org/1999/xlink"><defs><style type="text/css"><![CDATA[
@font-face { font-family: ifont; src: url("http://at.alicdn.com/t/font_1442373896_4754455.eot?#iefix") format("embedded-opentype"), url("http://at.alicdn.com/t/font_1442373896_4754455.woff") format("woff"), url("http://at.alicdn.com/t/font_1442373896_4754455.ttf") format("truetype"), url("http://at.alicdn.com/t/font_1442373896_4754455.svg#ifont") format("svg"); }

]]></style></defs><g class="transform-group"><g transform="scale(0.1953125, 0.1953125)"><path d="M192 640c-106.048 0-192 86.016-192 192s85.952 192 192 192 192-86.016 192-192S298.048 640 192 640zM832 640c-105.984 0-192 86.016-192 192s86.016 192 192 192 192-86.016 192-192S937.984 640 832 640zM686.464 580.928c7.232 8.768 16.128 14.72 26.176 14.72h9.92c5.312 0.576 10.432 0.768 15.68 0h145.152c23.488 0 42.624-28.608 42.624-64 0-35.392-19.136-64-42.624-64h-131.456l-40.832-36.288c36.8-51.264 32.512-122.88-13.568-169.024-51.264-51.2-134.336-51.2-185.536 0L326.464 448c-51.2 51.264-51.2 134.336 0 185.536C359.424 666.56 405.568 678.016 448 668.48V832c0 35.392 28.672 64 64 64 35.392 0 64-28.608 64-64V576c0-1.92-0.896-3.52-1.088-5.312l47.04-47.04L686.464 580.928zM832 320c70.656 0 128-57.344 128-128s-57.344-128-128-128-128 57.344-128 128S761.344 320 832 320z" fill="#f6ef37"></path></g></g></svg>