<?xml version="1.0" standalone="no"?><!DOCTYPE svg PUBLIC "-//W3C//DTD SVG 1.1//EN" "http://www.w3.org/Graphics/SVG/1.1/DTD/svg11.dtd"><svg width="200" height="200" viewBox="0 0 200 200" version="1.1" xmlns="http://www.w3.org/2000/svg" xmlns:xlink="http://www.w3.org/1999/xlink"><defs><style type="text/css"><![CDATA[
@font-face { font-family: ifont; src: url("http://at.alicdn.com/t/font_1442373896_4754455.eot?#iefix") format("embedded-opentype"), url("http://at.alicdn.com/t/font_1442373896_4754455.woff") format("woff"), url("http://at.alicdn.com/t/font_1442373896_4754455.ttf") format("truetype"), url("http://at.alicdn.com/t/font_1442373896_4754455.svg#ifont") format("svg"); }

]]></style></defs><g class="transform-group"><g transform="scale(0.1953125, 0.1953125)"><path d="M445.963064 3.754996 47.835453 3.754996c-24.591976 0-44.636956 20.01698-44.636956 44.636956l0 398.100611c0 24.619976 20.04498 44.608956 44.636956 44.608956l398.127611 0c24.618976 0 44.608956-19.98898 44.608956-44.608956L490.572021 48.391953C490.572021 23.771977 470.58304 3.754996 445.963064 3.754996zM434.125076 434.682576 59.646442 434.682576 59.646442 60.202941l374.478634 0L434.125076 434.682576zM978.362545 3.754996 580.233933 3.754996c-24.619976 0-44.608956 20.01698-44.608956 44.636956l0 398.100611c0 24.619976 19.98898 44.608956 44.608956 44.608956l398.128611 0c24.591976 0 44.636956-19.98898 44.636956-44.608956L1022.999501 48.391953C1022.999501 23.771977 1002.954521 3.754996 978.362545 3.754996zM966.552556 434.682576 592.017922 434.682576 592.017922 60.202941l374.534634 0L966.552556 434.682576zM445.963064 536.598476 47.835453 536.598476c-24.591976 0-44.636956 20.01798-44.636956 44.637956l0 398.127611c0 24.618976 20.04498 44.635956 44.636956 44.635956l398.127611 0c24.618976 0 44.608956-20.01698 44.608956-44.635956L490.572021 581.235432C490.572021 556.615456 470.58304 536.598476 445.963064 536.598476zM434.125076 967.552055 59.646442 967.552055 59.646442 593.045421l374.478634 0L434.125076 967.552055zM978.362545 536.598476 580.233933 536.598476c-24.619976 0-44.608956 20.01798-44.608956 44.637956l0 398.127611c0 24.618976 19.98898 44.635956 44.608956 44.635956l398.128611 0c24.591976 0 44.636956-20.01698 44.636956-44.635956L1022.999501 581.235432C1022.999501 556.615456 1002.954521 536.598476 978.362545 536.598476zM966.552556 967.552055 592.017922 967.552055 592.017922 593.045421l374.534634 0L966.552556 967.552055z" fill="#272636"></path></g></g></svg>