<?xml version="1.0" standalone="no"?><!DOCTYPE svg PUBLIC "-//W3C//DTD SVG 1.1//EN" "http://www.w3.org/Graphics/SVG/1.1/DTD/svg11.dtd"><svg width="200" height="200" viewBox="0 0 200 200" version="1.1" xmlns="http://www.w3.org/2000/svg" xmlns:xlink="http://www.w3.org/1999/xlink"><defs><style type="text/css"><![CDATA[
@font-face { font-family: ifont; src: url("http://at.alicdn.com/t/font_1442373896_4754455.eot?#iefix") format("embedded-opentype"), url("http://at.alicdn.com/t/font_1442373896_4754455.woff") format("woff"), url("http://at.alicdn.com/t/font_1442373896_4754455.ttf") format("truetype"), url("http://at.alicdn.com/t/font_1442373896_4754455.svg#ifont") format("svg"); }

]]></style></defs><g class="transform-group"><g transform="scale(0.1953125, 0.1953125)"><path d="M509.529 117.134c-18.877 0-33.038 15.821-33.038 34.922 0 17.978 14.156 33.498 33.038 33.498 18.877 0 33.038-15.595 33.038-33.498 0-19.107-14.156-34.922-33.038-34.922zM572.508 173.268h-2.343c2.343-6.582 3.543-13.452 3.543-20.059 0-4.718-1.183-10.141-2.343-14.639h2.343c30.909-2.343 62.781-3.318 93.677-6.839 16.732-0.934 33.273-3.318 49.795-4.468h1.183l2.115-0.934c-47.41-65.136-123.666-107.629-208.864-107.629-86.114 0-162.37 42.439-209.77 108.521h2.115c4.468 0 8.949 1.183 13.219 1.183h2.343v1.183h1.183l34.202 3.318c30.909 2.343 60.651 4.468 91.582 5.682h2.343c-1.183 4.468-2.343 9.925-2.343 14.639 0 6.582 2.343 14.41 3.318 20.059h-2.115l1.183 0.934c-32.064-0.934-62.993-2.115-93.906-3.318l-75.276-6.582c-17.727 35.877-27.617 75.054-27.617 116.338 0 144.647 116.103 262.16 259.573 262.16 142.538 0 258.657-117.494 258.657-262.16 0-41.299-9.925-81.651-27.617-116.338-24.337 2.343-49.795 4.468-75.276 5.682-31.84 2.115-63.978 3.318-94.91 4.29v-0.934zM509.529 90.463c33.038 0 60.651 26.651 60.651 61.597 0 33.498-27.617 61.597-60.651 61.597-33.038 0-60.651-28.095-60.651-61.597 0-34.922 27.38-61.597 60.651-61.597zM363.674 529.373c-133.574 0-241.878 109.71-241.878 245.395v258.657h778.724v-258.657c0-135.694-108.321-245.395-241.878-245.395l-64.193 111.161-82.829 146.532-83.996-146.532-63.978-111.161zM747.125 726.644v70.787h70.787v47.2h-70.787v70.787h-47.2v-70.787h-70.787v-47.2h70.787v-70.787h47.2z" fill="#272636"></path></g></g></svg>