<?xml version="1.0" standalone="no"?><!DOCTYPE svg PUBLIC "-//W3C//DTD SVG 1.1//EN" "http://www.w3.org/Graphics/SVG/1.1/DTD/svg11.dtd"><svg width="200" height="200" viewBox="0 0 200 200" version="1.1" xmlns="http://www.w3.org/2000/svg" xmlns:xlink="http://www.w3.org/1999/xlink"><defs><style type="text/css"><![CDATA[
@font-face { font-family: ifont; src: url("http://at.alicdn.com/t/font_1442373896_4754455.eot?#iefix") format("embedded-opentype"), url("http://at.alicdn.com/t/font_1442373896_4754455.woff") format("woff"), url("http://at.alicdn.com/t/font_1442373896_4754455.ttf") format("truetype"), url("http://at.alicdn.com/t/font_1442373896_4754455.svg#ifont") format("svg"); }

]]></style></defs><g class="transform-group"><g transform="scale(0.1953125, 0.1953125)"><path d="M928.050206 314.235844c-24.794709-71.580269-86.846974-125.937271-162.031327-141.815913-16.550954-3.480264-33.283034-5.252631-49.838082-5.252631-90.817402 0-171.924651 54.17383-206.553333 133.449361-34.628682-79.275531-115.735931-133.449361-206.553333-133.449361-16.554024 0-33.287127 1.772366-49.89948 5.252631-75.125001 15.878642-137.176243 70.235644-161.970952 141.815913-19.360953 56.065923-15.879666 113.231901 10.017144 165.389818 35.116799 70.662363 241.611803 254.744915 361.625154 358.143866 13.006222 11.177574 29.618575 17.346063 46.781466 17.346063s33.776268-6.16849 46.782489-17.346063c120.011304-103.398952 326.44491-287.481504 361.623108-358.143866C943.930895 427.467745 947.412183 370.301767 928.050206 314.235844z" fill="#eb4f38"></path></g></g></svg>