<?xml version="1.0" standalone="no"?><!DOCTYPE svg PUBLIC "-//W3C//DTD SVG 1.1//EN" "http://www.w3.org/Graphics/SVG/1.1/DTD/svg11.dtd"><svg width="200.1953125" height="200" viewBox="0 0 200.1953125 200" version="1.1" xmlns="http://www.w3.org/2000/svg" xmlns:xlink="http://www.w3.org/1999/xlink"><defs><style type="text/css"><![CDATA[
@font-face { font-family: ifont; src: url("http://at.alicdn.com/t/font_1442373896_4754455.eot?#iefix") format("embedded-opentype"), url("http://at.alicdn.com/t/font_1442373896_4754455.woff") format("woff"), url("http://at.alicdn.com/t/font_1442373896_4754455.ttf") format("truetype"), url("http://at.alicdn.com/t/font_1442373896_4754455.svg#ifont") format("svg"); }

]]></style></defs><g class="transform-group"><g transform="scale(0.1953125, 0.1953125)"><path d="M1023.977362 311.9488C1021.871762 173.02272 920.340882 65.9008 786.753682 50.432c-106.11456-12.27776-211.65824 41.21216-271.49056 128.48512C464.072082 94.816 363.036562 51.2 265.686162 49.19808 116.756882 46.09792 10.274962 163.89248 0.602002 309.20192c-10.624 159.54304 121.62048 320.29824 218.70208 431.17056 54.36672 62.08896 113.89312 120.16896 177.92768 171.96288 28.82048 23.29472 64.86016 55.95904 103.23072 64.44032 3.70304 1.48864 12.83456 3.70304 12.83456 3.70304s9.43744-2.16704 13.11232-3.63264c37.0048-7.89632 71.71456-37.67424 100.14464-59.5968 62.01856-47.85536 118.8032-102.368 171.79392-160.2176C905.602962 639.98336 1026.525842 480.2752 1023.977362 311.9488L1023.977362 311.9488zM935.428242 364.69504c-11.50592 130.2144-123.65056 252.17792-207.62112 343.71456-40.5952 44.24192-84.512 85.52448-130.95424 123.40608-19.75552 16.09984-88.6016 54.42304-88.6016 54.42304s-11.22816-8.896-17.77664-12.95232c-17.44256-10.78528-33.80096-23.45856-49.75488-36.3456-47.968-38.72-92.20096-82.28736-134.25664-127.43936C219.583122 616.2176 118.042002 502.01344 93.117842 373.0112c-19.14752-99.10784 36.23808-202.99776 132.59008-224.0576 94.70208-20.68864 191.18208 53.23904 260.50304 134.45632 11.70816 13.71648 28.5568 19.39584 43.85536 8.41984 13.4464-9.64608 25.64864-23.3984 38.89408-36.42368 11.41376-11.22304 19.07712-18.38592 30.08-30.08 54.31936-57.73056 111.2256-94.04032 181.01376-82.50624C879.406482 159.2448 943.814802 269.78048 935.428242 364.69504zM932.294802 367.97824" fill="#eb4f38"></path></g></g></svg>