<?xml version="1.0" standalone="no"?><!DOCTYPE svg PUBLIC "-//W3C//DTD SVG 1.1//EN" "http://www.w3.org/Graphics/SVG/1.1/DTD/svg11.dtd"><svg width="200.1953125" height="200" viewBox="0 0 200.1953125 200" version="1.1" xmlns="http://www.w3.org/2000/svg" xmlns:xlink="http://www.w3.org/1999/xlink"><defs><style type="text/css"><![CDATA[
@font-face { font-family: ifont; src: url(http://at.alicdn.com/t/font_1442373896_4754455.eot?#iefix) format(embedded-opentype), url(http://at.alicdn.com/t/font_1442373896_4754455.woff) format(woff), url(http://at.alicdn.com/t/font_1442373896_4754455.ttf) format(truetype), url(http://at.alicdn.com/t/font_1442373896_4754455.svg#ifont) format(svg); }

]]></style></defs><g class="transform-group"><g transform="scale(0.1953125, 0.1953125)"><path d="M705.51577 318.403792c-49.443081-49.094513-117.909951-80.291381-193.375002-80.291381s-144.15983 31.196868-193.482253 80.291381l-0.308349 0c-49.268797 49.550333-79.781935 117.909951-79.781935 193.549286 0 75.92087 30.513138 143.998953 80.103691 193.938074 49.322423 49.094513 118.017203 80.170723 193.482253 80.170723l216.206229 0 0-98.215839c0-4.946989 1.474712-10.028044 5.121274-14.693497 16.597217-22.804415 30.043911-48.880009 38.79834-76.256032 8.86168-26.303505 13.513727-55.006769 13.513727-84.943428 0-75.223734-30.017098-142.966654-79.044579-192.302484L705.51577 318.403792zM673.206164 606.307851l-322.425734 0c-8.271795 0-14.787342-6.421702-14.787342-14.613058 0-8.097511 6.502141-15.001846 14.787342-15.001846l322.425734 0c8.312015 0 14.94822 6.917741 14.94822 15.001846C688.16779 599.899556 681.518179 606.307851 673.206164 606.307851zM673.206164 526.659981l-322.425734 0c-8.271795 0-14.787342-6.515547-14.787342-14.599652 0-8.191356 6.502141-15.028659 14.787342-15.028659l322.425734 0c8.312015 0 14.94822 6.837302 14.94822 15.028659C688.16779 520.131027 681.518179 526.659981 673.206164 526.659981zM673.206164 447.293646l-322.425734 0c-8.271795 0-14.787342-6.649612-14.787342-15.028659 0-8.084105 6.502141-14.72031 14.787342-14.72031l322.425734 0c8.312015 0 14.94822 6.636205 14.94822 14.72031C688.16779 440.644035 681.518179 447.293646 673.206164 447.293646zM511.966484 0C229.237323 0 0 229.290949 0 511.993297c0 282.76938 229.237323 512.006703 511.966484 512.006703 282.876632 0 512.127362-229.25073 512.127362-512.006703C1024.093845 229.290949 794.856522 0 511.966484 0zM819.591469 612.233514c-9.464972 30.057318-23.742868 58.130477-41.506448 83.575968l0 114.611958c0 14.090206-11.167594 24.855605-24.882418 24.855605L512.140768 835.277045c-89.380972 0-170.275644-35.822102-228.419528-94.663123l-0.402194 0c-58.210916-58.465639-94.689936-139.360312-94.689936-228.660845 0-89.327346 36.47902-169.927076 95.09213-228.647438l-0.402194-0.187691c58.546078-58.251136 139.440751-94.394994 228.821723-94.394994 89.461411 0 170.047734 36.143858 228.580406 94.394994l1.555151 1.40768c57.406528 58.733769 93.188411 138.810647 93.188411 227.414043C835.464736 546.850133 829.860829 580.647857 819.591469 612.233514z" fill="#11cd6e"></path></g></g></svg>