<?xml version="1.0" standalone="no"?><!DOCTYPE svg PUBLIC "-//W3C//DTD SVG 1.1//EN" "http://www.w3.org/Graphics/SVG/1.1/DTD/svg11.dtd"><svg width="200.1953125" height="200" viewBox="0 0 200.1953125 200" version="1.1" xmlns="http://www.w3.org/2000/svg" xmlns:xlink="http://www.w3.org/1999/xlink"><defs><style type="text/css"><![CDATA[
@font-face { font-family: ifont; src: url(http://at.alicdn.com/t/font_1442373896_4754455.eot?#iefix) format(embedded-opentype), url(http://at.alicdn.com/t/font_1442373896_4754455.woff) format(woff), url(http://at.alicdn.com/t/font_1442373896_4754455.ttf) format(truetype), url(http://at.alicdn.com/t/font_1442373896_4754455.svg#ifont) format(svg); }

]]></style></defs><g class="transform-group"><g transform="scale(0.1953125, 0.1953125)"><path d="M342.4 518.4m-44.8 0a1.4 1.4 0 1 0 89.6 0 1.4 1.4 0 1 0-89.6 0ZM512 518.4m-44.8 0a1.4 1.4 0 1 0 89.6 0 1.4 1.4 0 1 0-89.6 0ZM678.4 518.4m-44.8 0a1.4 1.4 0 1 0 89.6 0 1.4 1.4 0 1 0-89.6 0ZM204.8 633.6c-6.4 0-12.8-3.2-16-6.4l-166.4-163.2c-19.2-19.2-25.6-48-19.2-73.6 9.6-25.6 32-44.8 57.6-48l230.4-32c12.8-3.2 25.6 6.4 25.6 19.2 3.2 12.8-6.4 25.6-19.2 25.6l-230.4 32c-9.6 0-16 6.4-19.2 16-3.2 9.6 0 19.2 6.4 25.6l166.4 163.2c9.6 9.6 9.6 25.6 0 35.2C217.6 630.4 211.2 633.6 204.8 633.6zM240 1001.6c-16 0-28.8-3.2-41.6-12.8-22.4-16-32-41.6-28.8-70.4l38.4-227.2c3.2-12.8 16-22.4 28.8-19.2 12.8 3.2 22.4 16 19.2 28.8l-38.4 227.2c0 9.6 3.2 19.2 9.6 22.4 6.4 6.4 16 6.4 25.6 3.2l204.8-108.8c12.8-6.4 25.6-3.2 32 9.6 6.4 12.8 3.2 25.6-9.6 32l-204.8 108.8C262.4 998.4 249.6 1001.6 240 1001.6zM784 1001.6c-12.8 0-22.4-3.2-32-9.6l-204.8-108.8c-12.8-6.4-16-19.2-9.6-32 6.4-12.8 19.2-16 32-9.6l204.8 108.8c9.6 3.2 19.2 3.2 25.6-3.2 6.4-6.4 9.6-12.8 9.6-22.4l-38.4-227.2c-3.2-12.8 6.4-25.6 19.2-28.8 12.8-3.2 25.6 6.4 28.8 19.2l38.4 227.2c3.2 25.6-6.4 54.4-28.8 70.4C812.8 998.4 796.8 1001.6 784 1001.6zM819.2 633.6c-6.4 0-12.8-3.2-16-6.4-9.6-9.6-9.6-25.6 0-35.2l166.4-163.2c6.4-6.4 9.6-16 6.4-25.6-3.2-9.6-9.6-16-19.2-16l-230.4-32c-12.8-3.2-22.4-12.8-19.2-25.6 3.2-12.8 12.8-22.4 25.6-19.2l230.4 32c28.8 3.2 48 22.4 57.6 48 9.6 25.6 0 54.4-19.2 73.6l-166.4 163.2C832 630.4 825.6 633.6 819.2 633.6zM656 304c-9.6 0-16-6.4-22.4-12.8l-102.4-208c-3.2-9.6-12.8-12.8-22.4-12.8-9.6 0-16 6.4-22.4 12.8l-102.4 208c-6.4 12.8-19.2 16-32 9.6-12.8-6.4-16-19.2-9.6-32l102.4-208c12.8-25.6 38.4-38.4 64-38.4s51.2 16 64 38.4l102.4 208c6.4 12.8 0 25.6-9.6 32C662.4 304 659.2 304 656 304z" fill="#56abe4"></path></g></g></svg>