<?xml version="1.0" standalone="no"?><!DOCTYPE svg PUBLIC "-//W3C//DTD SVG 1.1//EN" "http://www.w3.org/Graphics/SVG/1.1/DTD/svg11.dtd"><svg width="200" height="200" viewBox="0 0 200 200" version="1.1" xmlns="http://www.w3.org/2000/svg" xmlns:xlink="http://www.w3.org/1999/xlink"><defs><style type="text/css"><![CDATA[
@font-face { font-family: ifont; src: url(http://at.alicdn.com/t/font_1442373896_4754455.eot?#iefix) format(embedded-opentype), url(http://at.alicdn.com/t/font_1442373896_4754455.woff) format(woff), url(http://at.alicdn.com/t/font_1442373896_4754455.ttf) format(truetype), url(http://at.alicdn.com/t/font_1442373896_4754455.svg#ifont) format(svg); }

]]></style></defs><g class="transform-group"><g transform="scale(0.1953125, 0.1953125)"><path d="M955.6104 403.197992c-3.797489-11.391445-13.513782-19.655665-25.351388-21.443381l-269.601274-41.657772L540.263717 82.223676c-5.249561-11.168364-16.529465-18.427698-28.925796-18.427698l0 0c-12.396331 0-23.564695 7.147794-28.925796 18.316158L360.9027 339.316056l-269.935895 40.764426c-11.838629 1.786693-21.666462 9.939373-25.463951 21.330818-3.797489 11.279904-1.004887 23.90034 7.370875 32.387641l195.890482 201.474664L221.969441 919.282007c-2.009773 12.06171 3.127224 24.234961 13.066597 31.271214s23.118534 7.818059 33.839713 1.898233l241.12164-132.678812 240.563938 133.572158c4.913916 2.568499 10.163477 3.90903 15.523555 3.90903l0.670266 0c17.645892 0 31.828916-14.295588 31.828916-31.94148 0-3.90903-0.670266-7.706519-2.009773-11.279904l-44.672432-277.865495 196.337667-200.692858C956.503746 426.986791 959.407889 414.477896 955.6104 403.197992z" fill="#f4c600"></path></g></g></svg>