<?xml version="1.0" standalone="no"?><!DOCTYPE svg PUBLIC "-//W3C//DTD SVG 1.1//EN" "http://www.w3.org/Graphics/SVG/1.1/DTD/svg11.dtd"><svg width="200" height="200" viewBox="0 0 200 200" version="1.1" xmlns="http://www.w3.org/2000/svg" xmlns:xlink="http://www.w3.org/1999/xlink"><defs><style type="text/css"><![CDATA[
@font-face { font-family: ifont; src: url(http://at.alicdn.com/t/font_1442373896_4754455.eot?#iefix) format(embedded-opentype), url(http://at.alicdn.com/t/font_1442373896_4754455.woff) format(woff), url(http://at.alicdn.com/t/font_1442373896_4754455.ttf) format(truetype), url(http://at.alicdn.com/t/font_1442373896_4754455.svg#ifont) format(svg); }

]]></style></defs><g class="transform-group"><g transform="scale(0.1953125, 0.1953125)"><path d="M512 0C229.2224 0 0 229.2224 0 512s229.2224 512 512 512 512-229.2224 512-512S794.7776 0 512 0zM506.8544 711.2192c0 18.0992-19.712 31.5392-39.1936 20.9664-7.808-4.2496-61.5936-49.1776-116.736-94.848L248.448 637.3376c-31.1296 0-56.3456-24.5248-56.3456-54.7584l0-131.4048c0-30.2336 25.2416-54.7584 56.3456-54.7584l100.6592 0c54.2976-44.928 108.2368-89.3184 119.3728-95.1552 16.6144-8.7552 38.4 0.9216 38.4 20.8384l0 389.12L506.8544 711.2192zM608.4352 735.6416l0-0.7424c-1.6128 0.5376-3.2768 0.9728-5.0688 0.9728-8.4224 0-15.232-6.528-15.232-14.592s6.8096-14.592 15.232-14.592c1.792 0 3.4816 0.4352 5.0688 0.9728l0-1.2288c107.008-2.6112 192.9472-86.3744 192.9472-189.5424 0-103.1936-85.9392-186.9568-192.9472-189.5424l0-1.2288c-1.6128 0.5376-3.2768 0.9728-5.0688 0.9728-8.4224 0-15.232-6.528-15.232-14.592s6.8096-14.592 15.232-14.592c1.792 0 3.4816 0.4352 5.0688 0.9728l0-0.7424c123.8272 2.6112 223.4112 99.456 223.4112 218.752C831.8464 636.1856 732.2624 733.0304 608.4352 735.6416zM606.4128 399.744l0-1.536c-1.0496 0.4096-1.8688 1.2288-3.0464 1.2288-5.0432 0-9.1392-3.968-9.1392-8.8832s4.096-8.8832 9.1392-8.8832c1.2032 0 1.9968 0.8192 3.0464 1.2288l0-0.9216c74.2656 1.6128 134.0416 60.3904 134.0416 133.0176s-59.776 131.3792-134.0416 132.992l0-0.9216c-1.0496 0.4096-1.8688 1.2288-3.0464 1.2288-5.0432 0-9.1392-3.968-9.1392-8.8832s4.096-8.8832 9.1392-8.8832c1.2032 0 1.9968 0.8192 3.0464 1.2288l0-1.536c64.1792-1.6128 115.7632-52.4288 115.7632-115.2256S670.592 401.3568 606.4128 399.744z" fill="#f4c600"></path></g></g></svg>