<?xml version="1.0" standalone="no"?><!DOCTYPE svg PUBLIC "-//W3C//DTD SVG 1.1//EN" "http://www.w3.org/Graphics/SVG/1.1/DTD/svg11.dtd"><svg width="200" height="200" viewBox="0 0 200 200" version="1.1" xmlns="http://www.w3.org/2000/svg" xmlns:xlink="http://www.w3.org/1999/xlink"><defs><style type="text/css"><![CDATA[
@font-face { font-family: ifont; src: url(http://at.alicdn.com/t/font_1442373896_4754455.eot?#iefix) format(embedded-opentype), url(http://at.alicdn.com/t/font_1442373896_4754455.woff) format(woff), url(http://at.alicdn.com/t/font_1442373896_4754455.ttf) format(truetype), url(http://at.alicdn.com/t/font_1442373896_4754455.svg#ifont) format(svg); }

]]></style></defs><g class="transform-group"><g transform="scale(0.1953125, 0.1953125)"><path d="M378.757858 769.335926c19.59222-23.948435 42.689265-45.870724 64.611553-67.821665 59.706847-59.734476 119.524211-119.547747 179.230034-179.283246 55.740512-55.749722 111.480001-111.499443 167.131485-167.220512 12.45466-12.444427 24.340361-27.649733 38.244023-38.468127 14.490016-11.219529 24.15412-4.181229 35.434024 7.215332 9.967002 10.075473 19.640316 20.413935 29.392424 30.577413 2.233877 2.379187 15.069207 12.258185 15.069207 15.666818l-0.303922-239.683894c0-35.805484-29.656437-64.953338-66.068741-64.953338L143.813918 65.364707c-36.432771 0-66.079998 29.147854-66.079998 64.953338l0 753.633293c0 35.804461 29.647227 64.952314 66.079998 64.952314l173.300998 0.862647 34.386158-126.775358C351.617731 822.988894 359.617939 792.68675 378.757858 769.335926L378.757858 769.335926zM450.829314 441.61086 211.332684 441.61086c-11.31879 0-20.473287-9.027607-20.473287-20.140713 0-11.122315 9.154497-20.120246 20.473287-20.120246l239.496629 0c11.289114 0 20.473287 8.996908 20.473287 20.120246C471.390605 432.584276 462.119451 441.61086 450.829314 441.61086L450.829314 441.61086zM617.567849 335.349721 211.332684 335.349721c-11.31879 0-20.473287-9.04705-20.473287-20.13048 0-11.131525 9.154497-20.129456 20.473287-20.129456l406.235165 0c11.308557 0 20.482497 8.996908 20.482497 20.129456C638.050346 326.302671 628.876406 335.349721 617.567849 335.349721L617.567849 335.349721zM730.985991 228.989321 211.332684 228.989321c-11.31879 0-20.473287-9.026584-20.473287-20.139689 0-11.103896 9.154497-20.139689 20.473287-20.139689l519.653307 0c11.298324 0 20.463054 9.036817 20.463054 20.139689C751.449046 219.962737 742.284315 228.989321 730.985991 228.989321L730.985991 228.989321zM952.125531 505.800811l-95.374184-93.728708c-10.133801-9.977235-27.904537-9.977235-38.048571 0L419.704432 804.074102c-1.635243 1.626034-2.888793 3.710508-3.476171 5.894244l-39.888476 140.647297c-1.26276 4.464685-0.098237 9.29162 3.084245 12.727882 2.604314 2.743484 6.275937 4.358261 10.05603 4.358261 0.861624 0 1.644453-0.089028 2.515287-0.195451L546.082748 939.121867c2.694365-0.480954 5.199419-1.802042 7.147794-3.701299l398.982994-392.091026C962.641025 532.961404 962.641025 516.15974 952.125531 505.800811L952.125531 505.800811zM890.374118 583.590502c-5.110391 5.022387-13.140275 5.296633-17.947767 0.558725l-95.167476-93.553723c-4.827959-4.738931-4.542456-12.620435 0.576121-17.653055 5.130857-5.022387 13.238512-5.316076 17.958-0.548492l95.178733 93.524047C895.788431 570.567907 895.503952 578.538439 890.374118 583.590502L890.374118 583.590502zM890.374118 583.590502" fill="#11cd6e"></path></g></g></svg>