<?xml version="1.0" standalone="no"?><!DOCTYPE svg PUBLIC "-//W3C//DTD SVG 1.1//EN" "http://www.w3.org/Graphics/SVG/1.1/DTD/svg11.dtd"><svg width="200" height="200" viewBox="0 0 200 200" version="1.1" xmlns="http://www.w3.org/2000/svg" xmlns:xlink="http://www.w3.org/1999/xlink"><defs><style type="text/css"><![CDATA[
@font-face { font-family: ifont; src: url(http://at.alicdn.com/t/font_1442373896_4754455.eot?#iefix) format(embedded-opentype), url(http://at.alicdn.com/t/font_1442373896_4754455.woff) format(woff), url(http://at.alicdn.com/t/font_1442373896_4754455.ttf) format(truetype), url(http://at.alicdn.com/t/font_1442373896_4754455.svg#ifont) format(svg); }

]]></style></defs><g class="transform-group"><g transform="scale(0.1953125, 0.1953125)"><path d="M966.95552 377.379942c-70.460621 259.296563-444.231373 572.034355-444.231373 572.034355S149.016883 636.676608 78.508237 377.379942c-7.341466-24.83671-11.409306-51.341312-11.409306-78.831411 0-143.791923 108.790067-260.34647 243.035955-260.34647 101.89271 0 180.236186 67.311002 212.160512 162.588979 0.063488 0 0.429773 0.126874 0.429773 0.126874s0.380723-0.126874 0.491213-0.126874c31.877325-95.277978 110.284186-162.588979 212.159488-162.588979 134.181376 0 242.97257 116.554547 242.97257 260.34647C978.348442 326.03863 974.345114 352.543334 966.95552 377.379942L966.95552 377.379942zM717.991322 370.165658l-97.632528 0 0-97.629551L425.090625 272.536106l0 97.629551-97.634575 0 0 195.260126 97.634575 0 0 97.629551 195.268126 0 0-97.629551 97.632528 0L717.99128 370.165668 717.991322 370.165658z" fill="#eb4f38"></path></g></g></svg>