<?xml version="1.0" standalone="no"?><!DOCTYPE svg PUBLIC "-//W3C//DTD SVG 1.1//EN" "http://www.w3.org/Graphics/SVG/1.1/DTD/svg11.dtd"><svg width="200" height="200" viewBox="0 0 200 200" version="1.1" xmlns="http://www.w3.org/2000/svg" xmlns:xlink="http://www.w3.org/1999/xlink"><defs><style type="text/css"><![CDATA[
@font-face { font-family: ifont; src: url(http://at.alicdn.com/t/font_1442373896_4754455.eot?#iefix) format(embedded-opentype), url(http://at.alicdn.com/t/font_1442373896_4754455.woff) format(woff), url(http://at.alicdn.com/t/font_1442373896_4754455.ttf) format(truetype), url(http://at.alicdn.com/t/font_1442373896_4754455.svg#ifont) format(svg); }

]]></style></defs><g class="transform-group"><g transform="scale(0.1953125, 0.1953125)"><path d="M630.525464 960.451662 393.474536 960.451662c-180.474374 0-328.135412-147.661038-328.135412-328.135412L65.339124 391.68375c0-180.474374 147.661038-328.135412 328.135412-328.135412l237.050927 0c180.474374 0 328.135412 147.661038 328.135412 328.135412l0 240.632499C958.660876 812.790624 810.999838 960.451662 630.525464 960.451662zM600.376817 377.503796 321.584206 377.503796c-5.013177 0-9.075703 4.062526-9.075703 9.075703s4.062526 9.075703 9.075703 9.075703l278.792611 0c5.013177 0 9.075703-4.062526 9.075703-9.075703S605.38897 377.503796 600.376817 377.503796zM747.296981 208.419843c-37.456077-6.102998-60.177568 29.535687-60.177568 29.535687s-22.726607-35.638685-60.183707-29.535687c-32.839943 5.332449-53.099359 29.182646-46.456055 64.326051 10.591219 55.962569 108.809171 104.424304 108.809171 104.424304S783.160793 328.708464 793.746896 272.744871C800.401456 237.60249 780.1359 213.752292 747.296981 208.419843zM600.376817 488.141616 321.584206 488.141616c-5.013177 0-9.075703 4.062526-9.075703 9.075703 0 5.013177 4.062526 9.075703 9.075703 9.075703l278.792611 0c5.013177 0 9.075703-4.062526 9.075703-9.075703C609.452519 492.204142 605.38897 488.141616 600.376817 488.141616zM600.376817 600.948845 321.584206 600.948845c-5.013177 0-9.075703 4.062526-9.075703 9.075703 0 5.013177 4.062526 9.075703 9.075703 9.075703l278.792611 0c5.013177 0 9.075703-4.062526 9.075703-9.075703C609.452519 605.01137 605.38897 600.948845 600.376817 600.948845zM600.376817 713.756073 321.584206 713.756073c-5.013177 0-9.075703 4.062526-9.075703 9.075703 0 5.013177 4.062526 9.075703 9.075703 9.075703l278.792611 0c5.013177 0 9.075703-4.062526 9.075703-9.075703C609.452519 717.819622 605.38897 713.756073 600.376817 713.756073zM683.889859 411.345556c-5.013177 0-9.075703 4.062526-9.075703 9.075703l0 377.710504L247.14175 798.131763 247.14175 294.124807l270.241864 0c5.013177 0 9.075703-4.062526 9.075703-9.075703 0-5.013177-4.062526-9.075703-9.075703-9.075703L228.990345 275.973402l0 540.309766 463.975217 0L692.965561 420.421258C692.965561 415.409105 688.903036 411.345556 683.889859 411.345556z" fill="#f4c600"></path></g></g></svg>