<?xml version="1.0" standalone="no"?><!DOCTYPE svg PUBLIC "-//W3C//DTD SVG 1.1//EN" "http://www.w3.org/Graphics/SVG/1.1/DTD/svg11.dtd"><svg width="200" height="200" viewBox="0 0 200 200" version="1.1" xmlns="http://www.w3.org/2000/svg" xmlns:xlink="http://www.w3.org/1999/xlink"><defs><style type="text/css"><![CDATA[
@font-face { font-family: ifont; src: url(http://at.alicdn.com/t/font_1442373896_4754455.eot?#iefix) format(embedded-opentype), url(http://at.alicdn.com/t/font_1442373896_4754455.woff) format(woff), url(http://at.alicdn.com/t/font_1442373896_4754455.ttf) format(truetype), url(http://at.alicdn.com/t/font_1442373896_4754455.svg#ifont) format(svg); }

]]></style></defs><g class="transform-group"><g transform="scale(0.1953125, 0.1953125)"><path d="M925.12 512l0 462.208L99.072 974.208 99.072 512 0.064 512 0.064 413.056l528.32-363.328L1024 413.056 1024 512 925.12 512 925.12 512zM512.064 280.512c-154.88 0-280.576 125.632-280.576 280.576 0 154.88 125.696 281.536 280.576 281.536 154.944 0 280.448-125.76 280.448-280.576C792.512 406.976 667.008 280.512 512.064 280.512L512.064 280.512zM561.984 743.616 462.08 743.616 462.08 611.008 330.496 611.008 330.496 512l132.416 0L462.912 379.52l99.072 0L561.984 512l132.48 0 0 98.944-132.48 0L561.984 743.616 561.984 743.616 561.984 743.616zM561.984 743.616" fill="#11cd6e"></path></g></g></svg>